<?xml version="1.0" encoding="UTF-8" standalone="no"?>
<!DOCTYPE svg PUBLIC "-//W3C//DTD SVG 1.1//EN" "http://www.w3.org/Graphics/SVG/1.1/DTD/svg11.dtd">
<svg width="100%" height="100%" viewBox="0 0 750 250" version="1.1" xmlns="http://www.w3.org/2000/svg" xmlns:xlink="http://www.w3.org/1999/xlink" xml:space="preserve" style="fill-rule:evenodd;clip-rule:evenodd;stroke-linecap:square;stroke-miterlimit:1.5;">
    <g id="Layer5" transform="matrix(1,0,0,1,-27.5939,-14.6399)">
        <g transform="matrix(0.996661,0,0,0.796296,0.132405,8.19526)">
            <g transform="matrix(1.00335,0,0,1.25581,-0.132849,-10.2917)">
                <path d="M86.311,45.442L72.179,45.442L72.179,83.731L68.695,83.731L68.695,45.442L54.592,45.442L54.592,42.497L86.311,42.497L86.311,45.442Z" style="fill-rule:nonzero;"/>
            </g>
            <g transform="matrix(1.00335,0,0,1.25581,-0.132849,-10.2917)">
                <path d="M123.524,83.731L120.012,83.731L120.012,63.964L96.449,63.964L96.449,83.731L92.966,83.731L92.966,42.497L96.449,42.497L96.449,61.018L120.012,61.018L120.012,42.497L123.524,42.497L123.524,83.731Z" style="fill-rule:nonzero;"/>
            </g>
            <g transform="matrix(1.00335,0,0,1.25581,-0.132849,-10.2917)">
                <path d="M156.772,63.964L137.486,63.964L137.486,80.786L159.66,80.786L159.66,83.731L134.002,83.731L134.002,42.497L159.519,42.497L159.519,45.442L137.486,45.442L137.486,61.018L156.772,61.018L156.772,63.964Z" style="fill-rule:nonzero;"/>
            </g>
            <g transform="matrix(1.00335,0,0,1.25581,-0.132849,-10.2917)">
                <path d="M184.582,66.937L184.582,83.731L181.099,83.731L181.099,42.497L195.146,42.497C199.431,42.497 202.816,43.592 205.298,45.782C207.781,47.972 209.023,50.984 209.023,54.816C209.023,58.687 207.828,61.674 205.44,63.78C203.052,65.885 199.592,66.937 195.061,66.937L184.582,66.937ZM184.582,63.992L195.146,63.992C198.525,63.992 201.102,63.188 202.877,61.581C204.652,59.974 205.539,57.733 205.539,54.859C205.539,52.004 204.657,49.73 202.891,48.037C201.126,46.345 198.62,45.48 195.372,45.442L184.582,45.442L184.582,63.992Z" style="fill-rule:nonzero;"/>
            </g>
            <g transform="matrix(1.00335,0,0,1.25581,-0.132849,-10.2917)">
                <path d="M235.162,72.148L216.443,72.148L212.194,83.731L208.541,83.731L224.146,42.497L227.459,42.497L243.064,83.731L239.439,83.731L235.162,72.148ZM217.519,69.203L234.058,69.203L225.788,46.745L217.519,69.203Z" style="fill-rule:nonzero;"/>
            </g>
            <g transform="matrix(1.00335,0,0,1.25581,-0.132849,-10.2917)">
                <path d="M278.011,70.874C277.539,75.216 275.986,78.539 273.352,80.843C270.718,83.146 267.211,84.298 262.831,84.298C259.773,84.298 257.068,83.533 254.717,82.004C252.367,80.474 250.55,78.308 249.266,75.504C247.982,72.7 247.331,69.496 247.312,65.889L247.312,60.537C247.312,56.874 247.954,53.627 249.237,50.795C250.521,47.963 252.367,45.777 254.774,44.239C257.181,42.7 259.952,41.93 263.086,41.93C267.504,41.93 270.992,43.12 273.55,45.499C276.109,47.878 277.596,51.172 278.011,55.383L274.499,55.383C273.631,48.378 269.826,44.876 263.086,44.876C259.348,44.876 256.369,46.274 254.151,49.071C251.933,51.867 250.823,55.731 250.823,60.663L250.823,65.708C250.823,70.469 251.904,74.267 254.066,77.101C256.228,79.935 259.15,81.352 262.831,81.352C266.475,81.352 269.222,80.479 271.072,78.733C272.923,76.986 274.065,74.367 274.499,70.874L278.011,70.874Z" style="fill-rule:nonzero;"/>
            </g>
            <g transform="matrix(1.00335,0,0,1.25581,-0.132849,-10.2917)">
                <rect x="287.243" y="42.497" width="3.483" height="41.234" style="fill-rule:nonzero;"/>
            </g>
            <g transform="matrix(1.00335,0,0,1.25581,-0.132849,-10.2917)">
                <path d="M324.626,64.445L305.397,64.445L305.397,83.731L301.913,83.731L301.913,42.497L327.458,42.497L327.458,45.442L305.397,45.442L305.397,61.5L324.626,61.5L324.626,64.445Z" style="fill-rule:nonzero;"/>
            </g>
            <g transform="matrix(1.00335,0,0,1.25581,-0.132849,-10.2917)">
                <rect x="335.303" y="42.497" width="3.483" height="41.234" style="fill-rule:nonzero;"/>
            </g>
            <g transform="matrix(1.00335,0,0,1.25581,-0.132849,-10.2917)">
                <path d="M379.171,70.874C378.699,75.216 377.146,78.539 374.512,80.843C371.879,83.146 368.372,84.298 363.991,84.298C360.933,84.298 358.228,83.533 355.878,82.004C353.527,80.474 351.71,78.308 350.426,75.504C349.142,72.7 348.491,69.496 348.472,65.889L348.472,60.537C348.472,56.874 349.114,53.627 350.398,50.795C351.681,47.963 353.527,45.777 355.934,44.239C358.341,42.7 361.112,41.93 364.246,41.93C368.664,41.93 372.152,43.12 374.711,45.499C377.269,47.878 378.756,51.172 379.171,55.383L375.659,55.383C374.791,48.378 370.986,44.876 364.246,44.876C360.508,44.876 357.53,46.274 355.311,49.071C353.093,51.867 351.984,55.731 351.984,60.663L351.984,65.708C351.984,70.469 353.064,74.267 355.226,77.101C357.388,79.935 360.31,81.352 363.991,81.352C367.635,81.352 370.382,80.479 372.233,78.733C374.083,76.986 375.225,74.367 375.659,70.874L379.171,70.874Z" style="fill-rule:nonzero;"/>
            </g>
            <g transform="matrix(1.00335,0,0,1.25581,-0.132849,-10.2917)">
                <path d="M432.442,83.731L428.958,83.731L405.254,48.444L405.254,83.731L401.742,83.731L401.742,42.497L405.254,42.497L428.986,77.812L428.986,42.497L432.442,42.497L432.442,83.731Z" style="fill-rule:nonzero;"/>
            </g>
            <g transform="matrix(1.00335,0,0,1.25581,-0.132849,-10.2917)">
                <path d="M473.393,65.351C473.393,69.146 472.737,72.479 471.424,75.348C470.112,78.218 468.238,80.427 465.803,81.975C463.367,83.524 460.554,84.298 457.363,84.298C452.549,84.298 448.66,82.575 445.695,79.129C442.731,75.684 441.249,71.034 441.249,65.181L441.249,60.933C441.249,57.176 441.915,53.849 443.246,50.95C444.577,48.052 446.46,45.825 448.896,44.267C451.331,42.709 454.135,41.93 457.307,41.93C460.479,41.93 463.278,42.695 465.704,44.224C468.13,45.754 470.004,47.916 471.325,50.71C472.647,53.504 473.336,56.742 473.393,60.424L473.393,65.351ZM469.909,60.877C469.909,55.911 468.786,52.022 466.539,49.209C464.292,46.396 461.215,44.989 457.307,44.989C453.474,44.989 450.42,46.4 448.145,49.223C445.87,52.046 444.733,55.987 444.733,61.047L444.733,65.351C444.733,70.241 445.865,74.117 448.131,76.977C450.397,79.837 453.474,81.267 457.363,81.267C461.309,81.267 464.387,79.856 466.596,77.034C468.805,74.211 469.909,70.279 469.909,65.238L469.909,60.877Z" style="fill-rule:nonzero;"/>
            </g>
            <g transform="matrix(1.00335,0,0,1.25581,-0.132849,-10.2917)">
                <path d="M497.578,66.541L485.599,66.541L485.599,83.731L482.087,83.731L482.087,42.497L495.483,42.497C499.882,42.497 503.318,43.562 505.791,45.693C508.264,47.824 509.501,50.804 509.501,54.632C509.501,57.272 508.727,59.601 507.179,61.619C505.631,63.637 503.554,65.032 500.948,65.805L511.257,83.363L511.257,83.731L507.547,83.731L497.578,66.541ZM485.599,63.596L496.276,63.596C499.202,63.596 501.553,62.763 503.327,61.099C505.102,59.435 505.989,57.279 505.989,54.632C505.989,51.72 505.064,49.461 503.214,47.853C501.364,46.246 498.768,45.442 495.426,45.442L485.599,45.442L485.599,63.596Z" style="fill-rule:nonzero;"/>
            </g>
            <g transform="matrix(1.00335,0,0,1.25581,-0.132849,-10.2917)">
                <path d="M544.703,45.442L530.571,45.442L530.571,83.731L527.088,83.731L527.088,45.442L512.985,45.442L512.985,42.497L544.703,42.497L544.703,45.442Z" style="fill-rule:nonzero;"/>
            </g>
            <g transform="matrix(1.00335,0,0,1.25581,-0.132849,-10.2917)">
                <path d="M581.916,83.731L578.404,83.731L578.404,63.964L554.842,63.964L554.842,83.731L551.359,83.731L551.359,42.497L554.842,42.497L554.842,61.018L578.404,61.018L578.404,42.497L581.916,42.497L581.916,83.731Z" style="fill-rule:nonzero;"/>
            </g>
            <g transform="matrix(1.00335,0,0,1.25581,-0.132849,-10.2917)">
                <path d="M600.013,72.601L601.287,79.002L602.845,72.885L611.794,42.497L614.938,42.497L623.774,72.885L625.303,79.058L626.662,72.601L634.111,42.497L637.679,42.497L627.115,83.731L623.774,83.731L614.428,51.474L613.38,47.396L612.361,51.474L602.788,83.731L599.446,83.731L588.911,42.497L592.48,42.497L600.013,72.601Z" style="fill-rule:nonzero;"/>
            </g>
            <g transform="matrix(1.00335,0,0,1.25581,-0.132849,-10.2917)">
                <path d="M667.16,63.964L647.874,63.964L647.874,80.786L670.049,80.786L670.049,83.731L644.391,83.731L644.391,42.497L669.907,42.497L669.907,45.442L647.874,45.442L647.874,61.018L667.16,61.018L667.16,63.964Z" style="fill-rule:nonzero;"/>
            </g>
            <g transform="matrix(1.00335,0,0,1.25581,-0.132849,-10.2917)">
                <path d="M700.72,73.593C700.72,71.308 699.917,69.5 698.313,68.169C696.708,66.838 693.772,65.573 689.505,64.374C685.238,63.175 682.123,61.868 680.159,60.452C677.365,58.451 675.968,55.826 675.968,52.579C675.968,49.426 677.266,46.863 679.862,44.89C682.458,42.917 685.776,41.93 689.817,41.93C692.554,41.93 695.004,42.459 697.166,43.516C699.327,44.574 701.003,46.046 702.193,47.934C703.382,49.822 703.977,51.928 703.977,54.25L700.465,54.25C700.465,51.428 699.502,49.16 697.576,47.447C695.651,45.733 693.064,44.876 689.817,44.876C686.664,44.876 684.152,45.58 682.283,46.989C680.414,48.398 679.48,50.237 679.48,52.506C679.48,54.605 680.32,56.317 682,57.64C683.68,58.964 686.371,60.132 690.071,61.143C693.772,62.155 696.576,63.204 698.483,64.289C700.389,65.375 701.824,66.673 702.787,68.183C703.75,69.694 704.232,71.478 704.232,73.536C704.232,76.783 702.934,79.389 700.338,81.352C697.742,83.316 694.319,84.298 690.071,84.298C687.164,84.298 684.497,83.778 682.071,82.74C679.645,81.702 677.804,80.248 676.548,78.379C675.293,76.51 674.665,74.367 674.665,71.95L678.149,71.95C678.149,74.858 679.234,77.152 681.405,78.832C683.577,80.512 686.465,81.352 690.071,81.352C693.281,81.352 695.858,80.644 697.803,79.228C699.748,77.812 700.72,75.934 700.72,73.593Z" style="fill-rule:nonzero;"/>
            </g>
            <g transform="matrix(1.00335,0,0,1.25581,-0.132849,-10.2917)">
                <path d="M739.717,45.442L725.585,45.442L725.585,83.731L722.102,83.731L722.102,45.442L707.998,45.442L707.998,42.497L739.717,42.497L739.717,45.442Z" style="fill-rule:nonzero;"/>
            </g>
        </g>
        <g transform="matrix(1.12654,0,0,1.11864,-51.7539,-8.22392)">
            <g transform="matrix(0.887676,0,0,0.893939,6.60659,11.634)">
                <path d="M111.407,170.255L135.595,170.255L135.595,181.692L97.626,181.692L97.626,113.442L111.407,113.442L111.407,170.255Z" style="fill-rule:nonzero;"/>
            </g>
            <g transform="matrix(0.887676,0,0,0.893939,6.60659,11.634)">
                <path d="M167.001,181.692C166.626,180.911 166.251,179.599 165.876,177.755C163.501,181.005 160.282,182.63 156.22,182.63C151.97,182.63 148.446,181.224 145.649,178.411C142.852,175.599 141.454,171.958 141.454,167.489C141.454,162.177 143.149,158.067 146.54,155.161C149.931,152.255 154.813,150.77 161.188,150.708L165.22,150.708L165.22,146.63C165.22,144.349 164.829,142.739 164.048,141.802C163.266,140.864 162.126,140.395 160.626,140.395C157.313,140.395 155.657,142.333 155.657,146.208L142.391,146.208C142.391,141.52 144.149,137.653 147.665,134.606C151.181,131.56 155.626,130.036 161.001,130.036C166.563,130.036 170.868,131.481 173.915,134.372C176.962,137.263 178.485,141.395 178.485,146.77L178.485,170.63C178.548,175.005 179.173,178.427 180.36,180.895L180.36,181.692L167.001,181.692ZM159.173,172.224C160.641,172.224 161.891,171.927 162.923,171.333C163.954,170.739 164.72,170.036 165.22,169.224L165.22,158.677L162.032,158.677C159.782,158.677 158.009,159.395 156.712,160.833C155.415,162.27 154.766,164.192 154.766,166.599C154.766,170.349 156.235,172.224 159.173,172.224Z" style="fill-rule:nonzero;"/>
            </g>
            <g transform="matrix(0.887676,0,0,0.893939,6.60659,11.634)">
                <path d="M227.657,157.974C227.657,166.192 226.345,172.356 223.72,176.466C221.095,180.575 216.97,182.63 211.345,182.63C206.938,182.63 203.407,180.645 200.751,176.677L200.329,181.692L188.095,181.692L188.095,109.692L201.36,109.692L201.36,135.099C203.86,131.724 207.157,130.036 211.251,130.036C216.876,130.036 221.001,132.075 223.626,136.153C226.251,140.231 227.595,146.208 227.657,154.083L227.657,157.974ZM214.391,154.687C214.391,149.327 213.876,145.73 212.845,143.896C211.813,142.062 210.016,141.145 207.454,141.145C204.673,141.145 202.641,142.415 201.36,144.954L201.36,168.134C202.548,170.517 204.61,171.708 207.548,171.708C210.079,171.708 211.837,170.877 212.821,169.216C213.806,167.555 214.329,164.326 214.391,159.53L214.391,154.687Z" style="fill-rule:nonzero;"/>
            </g>
            <g transform="matrix(0.887676,0,0,0.893939,6.60659,11.634)">
                <path d="M234.079,154.692C234.079,147.005 235.891,140.974 239.516,136.599C243.141,132.224 248.157,130.036 254.563,130.036C261.032,130.036 266.079,132.224 269.704,136.599C273.329,140.974 275.141,147.036 275.141,154.786L275.141,158.02C275.141,165.739 273.345,171.77 269.751,176.114C266.157,180.458 261.126,182.63 254.657,182.63C248.157,182.63 243.102,180.45 239.493,176.091C235.884,171.731 234.079,165.677 234.079,157.927L234.079,154.692ZM247.391,158.031C247.391,167.149 249.813,171.708 254.657,171.708C259.126,171.708 261.532,167.904 261.876,160.295L261.923,154.682C261.923,150.029 261.282,146.578 260.001,144.33C258.72,142.082 256.907,140.958 254.563,140.958C252.313,140.958 250.556,142.082 249.29,144.33C248.024,146.578 247.391,150.029 247.391,154.682L247.391,158.031Z" style="fill-rule:nonzero;"/>
            </g>
            <g transform="matrix(0.887676,0,0,0.893939,6.60659,11.634)">
                <path d="M308.423,143.77L304.016,143.395C300.391,143.395 297.938,144.989 296.657,148.177L296.657,181.692L283.345,181.692L283.345,130.974L295.86,130.974L296.235,136.458C298.329,132.177 301.22,130.036 304.907,130.036C306.407,130.036 307.626,130.239 308.563,130.645L308.423,143.77Z" style="fill-rule:nonzero;"/>
            </g>
            <g transform="matrix(0.887676,0,0,0.893939,6.60659,11.634)">
                <path d="M406.391,158.958C406.048,166.739 403.86,172.63 399.829,176.63C395.798,180.63 390.11,182.63 382.766,182.63C375.048,182.63 369.134,180.091 365.024,175.013C360.915,169.935 358.86,162.692 358.86,153.286L358.86,141.802C358.86,132.427 360.985,125.2 365.235,120.122C369.485,115.044 375.391,112.505 382.954,112.505C390.391,112.505 396.04,114.583 399.899,118.739C403.759,122.895 405.954,128.864 406.485,136.645L392.657,136.645C392.532,131.833 391.79,128.513 390.431,126.685C389.071,124.856 386.579,123.942 382.954,123.942C379.266,123.942 376.657,125.231 375.126,127.81C373.595,130.388 372.782,134.63 372.688,140.536L372.688,153.427C372.688,160.208 373.446,164.864 374.962,167.395C376.477,169.927 379.079,171.192 382.766,171.192C386.391,171.192 388.891,170.31 390.266,168.544C391.641,166.778 392.423,163.583 392.61,158.958L406.391,158.958Z" style="fill-rule:nonzero;"/>
            </g>
            <g transform="matrix(0.887676,0,0,0.893939,6.60659,11.634)">
                <path d="M428.141,181.692L414.829,181.692L414.829,130.974L428.141,130.974L428.141,181.692ZM414.22,117.849C414.22,115.786 414.876,114.099 416.188,112.786C417.501,111.474 419.251,110.817 421.438,110.817C423.626,110.817 425.376,111.474 426.688,112.786C428.001,114.099 428.657,115.786 428.657,117.849C428.657,119.88 428.009,121.567 426.712,122.911C425.415,124.255 423.657,124.927 421.438,124.927C419.22,124.927 417.462,124.255 416.165,122.911C414.868,121.567 414.22,119.88 414.22,117.849Z" style="fill-rule:nonzero;"/>
            </g>
            <g transform="matrix(0.887676,0,0,0.893939,6.60659,11.634)">
                <path d="M455.048,162.942L461.47,130.974L475.298,130.974L461.376,181.692L448.72,181.692L434.751,130.974L448.626,130.974L455.048,162.942Z" style="fill-rule:nonzero;"/>
            </g>
            <g transform="matrix(0.887676,0,0,0.893939,6.60659,11.634)">
                <path d="M495.454,181.692L482.141,181.692L482.141,130.974L495.454,130.974L495.454,181.692ZM481.532,117.849C481.532,115.786 482.188,114.099 483.501,112.786C484.813,111.474 486.563,110.817 488.751,110.817C490.938,110.817 492.688,111.474 494.001,112.786C495.313,114.099 495.97,115.786 495.97,117.849C495.97,119.88 495.321,121.567 494.024,122.911C492.727,124.255 490.97,124.927 488.751,124.927C486.532,124.927 484.774,124.255 483.477,122.911C482.181,121.567 481.532,119.88 481.532,117.849Z" style="fill-rule:nonzero;"/>
            </g>
            <g transform="matrix(0.887676,0,0,0.893939,6.60659,11.634)">
                <rect x="506.329" y="109.692" width="13.313" height="72" style="fill-rule:nonzero;"/>
            </g>
            <g transform="matrix(0.887676,0,0,0.893939,6.60659,11.634)">
                <path d="M573.36,156.755L566.516,156.755L566.516,181.692L552.735,181.692L552.735,113.442L574.72,113.442C581.626,113.442 586.962,115.231 590.727,118.81C594.493,122.388 596.376,127.474 596.376,134.067C596.376,143.13 593.079,149.474 586.485,153.099L598.438,181.036L598.438,181.692L583.626,181.692L573.36,156.755ZM566.516,145.27L574.345,145.27C577.095,145.27 579.157,144.356 580.532,142.528C581.907,140.7 582.595,138.255 582.595,135.192C582.595,128.349 579.923,124.927 574.579,124.927L566.516,124.927L566.516,145.27Z" style="fill-rule:nonzero;"/>
            </g>
            <g transform="matrix(0.887676,0,0,0.893939,6.60659,11.634)">
                <path d="M619.11,181.692L605.798,181.692L605.798,130.974L619.11,130.974L619.11,181.692ZM605.188,117.849C605.188,115.786 605.845,114.099 607.157,112.786C608.47,111.474 610.22,110.817 612.407,110.817C614.595,110.817 616.345,111.474 617.657,112.786C618.97,114.099 619.626,115.786 619.626,117.849C619.626,119.88 618.977,121.567 617.681,122.911C616.384,124.255 614.626,124.927 612.407,124.927C610.188,124.927 608.431,124.255 607.134,122.911C605.837,121.567 605.188,119.88 605.188,117.849Z" style="fill-rule:nonzero;"/>
            </g>
            <g transform="matrix(0.887676,0,0,0.893939,6.60659,11.634)">
                <path d="M627.782,154.786C627.782,146.474 629.282,140.27 632.282,136.177C635.282,132.083 639.485,130.036 644.891,130.036C649.485,130.036 653.032,131.849 655.532,135.474L656.048,130.974L668.001,130.974L668.001,181.692C668.001,188.161 666.188,193.106 662.563,196.528C658.938,199.95 653.735,201.661 646.954,201.661C644.173,201.661 641.251,201.106 638.188,199.997C635.126,198.888 632.845,197.474 631.345,195.755L635.798,186.567C637.048,187.88 638.673,188.95 640.673,189.778C642.673,190.606 644.563,191.02 646.345,191.02C649.313,191.02 651.446,190.31 652.743,188.888C654.04,187.466 654.704,185.177 654.735,182.02L654.735,177.661C652.204,180.974 648.907,182.63 644.845,182.63C639.438,182.63 635.259,180.528 632.306,176.325C629.352,172.122 627.845,166.192 627.782,158.536L627.782,154.786ZM641.048,158.114C641.048,162.802 641.657,166.216 642.876,168.356C644.095,170.497 646.032,171.567 648.688,171.567C651.407,171.567 653.423,170.583 654.735,168.614L654.735,144.38C653.36,142.224 651.376,141.145 648.782,141.145C646.157,141.145 644.212,142.224 642.946,144.38C641.681,146.536 641.048,150.005 641.048,154.786L641.048,158.114Z" style="fill-rule:nonzero;"/>
            </g>
            <g transform="matrix(0.887676,0,0,0.893939,6.60659,11.634)">
                <path d="M690.595,135.427C693.47,131.833 697.001,130.036 701.188,130.036C705.813,130.036 709.329,131.661 711.735,134.911C714.141,138.161 715.36,143.005 715.391,149.442L715.391,181.692L702.079,181.692L702.079,149.583C702.079,146.614 701.618,144.466 700.696,143.138C699.774,141.81 698.282,141.145 696.22,141.145C693.813,141.145 691.938,142.255 690.595,144.474L690.595,181.692L677.329,181.692L677.329,109.692L690.595,109.692L690.595,135.427Z" style="fill-rule:nonzero;"/>
            </g>
            <g transform="matrix(0.887676,0,0,0.893939,6.60659,11.634)">
                <path d="M740.329,118.505L740.329,130.974L747.126,130.974L747.126,140.911L740.329,140.911L740.329,166.122C740.329,168.125 740.602,169.502 741.149,170.253C741.696,171.004 742.751,171.38 744.313,171.38C745.595,171.38 746.641,171.27 747.454,171.052L747.36,181.364C745.11,182.208 742.673,182.63 740.048,182.63C731.485,182.63 727.157,177.718 727.063,167.894L727.063,140.911L721.204,140.911L721.204,130.974L727.063,130.974L727.063,118.505L740.329,118.505Z" style="fill-rule:nonzero;"/>
            </g>
            <g transform="matrix(0.887676,0,0,0.893939,6.60659,11.634)">
                <path d="M776.845,168.099C776.845,166.974 776.306,165.935 775.227,164.981C774.149,164.028 771.751,162.739 768.032,161.114C762.563,158.895 758.806,156.599 756.759,154.224C754.712,151.849 753.688,148.895 753.688,145.364C753.688,140.927 755.29,137.263 758.493,134.372C761.696,131.481 765.938,130.036 771.22,130.036C776.782,130.036 781.235,131.474 784.579,134.349C787.923,137.224 789.595,141.083 789.595,145.927L776.329,145.927C776.329,141.802 774.61,139.739 771.173,139.739C769.766,139.739 768.61,140.177 767.704,141.052C766.798,141.927 766.345,143.145 766.345,144.708C766.345,145.833 766.845,146.825 767.845,147.685C768.845,148.544 771.204,149.77 774.923,151.364C780.329,153.364 784.149,155.591 786.384,158.044C788.618,160.497 789.735,163.677 789.735,167.583C789.735,172.114 788.032,175.755 784.626,178.505C781.22,181.255 776.751,182.63 771.22,182.63C767.501,182.63 764.22,181.903 761.376,180.45C758.532,178.997 756.306,176.974 754.696,174.38C753.087,171.786 752.282,168.989 752.282,165.989L764.891,165.989C764.954,168.302 765.493,170.036 766.509,171.192C767.524,172.349 769.188,172.927 771.501,172.927C775.063,172.927 776.845,171.317 776.845,168.099Z" style="fill-rule:nonzero;"/>
            </g>
        </g>
        <g transform="matrix(1.58564,0,0,0.643678,-228.939,78.8438)">
            <g transform="matrix(0.630662,0,0,1.55357,134.75,-111.918)">
                <path d="M380.331,226.595L380.331,238.174L372.104,238.174L372.104,204.049L385.721,204.049C388.331,204.049 390.639,204.529 392.647,205.49C394.655,206.451 396.21,207.818 397.311,209.592C398.413,211.365 398.963,213.377 398.963,215.627C398.963,218.955 397.772,221.615 395.389,223.607C393.006,225.599 389.737,226.595 385.581,226.595L380.331,226.595ZM380.331,220.244L385.721,220.244C387.315,220.244 388.53,219.845 389.366,219.049C390.202,218.252 390.62,217.127 390.62,215.674C390.62,214.08 390.19,212.806 389.331,211.853C388.471,210.9 387.299,210.416 385.815,210.4L380.331,210.4L380.331,220.244Z" style="fill-rule:nonzero;"/>
            </g>
            <g transform="matrix(0.630662,0,0,1.55357,134.75,-111.918)">
                <path d="M416.026,226.103L411.573,226.103L411.573,238.174L403.346,238.174L403.346,204.049L416.776,204.049C420.823,204.049 423.987,204.946 426.268,206.741C428.549,208.536 429.69,211.072 429.69,214.35C429.69,216.723 429.21,218.689 428.249,220.25C427.288,221.811 425.784,223.075 423.737,224.043L430.862,237.822L430.862,238.174L422.049,238.174L416.026,226.103ZM411.573,219.775L416.776,219.775C418.338,219.775 419.514,219.364 420.303,218.542C421.092,217.719 421.487,216.572 421.487,215.099C421.487,213.627 421.088,212.472 420.292,211.634C419.495,210.796 418.323,210.377 416.776,210.377L411.573,210.377L411.573,219.775Z" style="fill-rule:nonzero;"/>
            </g>
            <g transform="matrix(0.630662,0,0,1.55357,134.75,-111.918)">
                <path d="M463.557,221.814C463.557,225.142 462.94,228.088 461.706,230.65C460.471,233.213 458.717,235.185 456.444,236.568C454.17,237.951 451.581,238.642 448.674,238.642C445.768,238.642 443.19,237.974 440.94,236.638C438.69,235.303 436.936,233.392 435.678,230.908C434.42,228.424 433.76,225.572 433.698,222.353L433.698,220.431C433.698,217.088 434.311,214.138 435.538,211.584C436.764,209.029 438.522,207.056 440.811,205.666C443.1,204.275 445.706,203.58 448.628,203.58C451.518,203.58 454.096,204.267 456.362,205.642C458.628,207.017 460.389,208.974 461.647,211.513C462.905,214.053 463.542,216.963 463.557,220.244L463.557,221.814ZM455.19,220.385C455.19,216.994 454.624,214.42 453.491,212.662C452.358,210.904 450.737,210.025 448.628,210.025C444.503,210.025 442.323,213.119 442.088,219.306L442.065,221.814C442.065,225.158 442.62,227.728 443.729,229.525C444.838,231.322 446.487,232.22 448.674,232.22C450.753,232.22 452.354,231.338 453.479,229.572C454.604,227.806 455.174,225.267 455.19,221.955L455.19,220.385Z" style="fill-rule:nonzero;"/>
            </g>
            <g transform="matrix(0.630662,0,0,1.55357,134.75,-111.918)">
                <path d="M481.393,204.049L489.596,204.049L489.596,227.463C489.596,229.635 489.092,231.572 488.085,233.275C487.077,234.978 485.67,236.299 483.866,237.236C482.061,238.174 480.049,238.642 477.831,238.642C474.112,238.642 471.221,237.705 469.159,235.83C467.096,233.955 466.065,231.299 466.065,227.861L474.315,227.861C474.315,229.424 474.585,230.556 475.124,231.26C475.663,231.963 476.565,232.314 477.831,232.314C478.971,232.314 479.85,231.888 480.467,231.037C481.085,230.185 481.393,228.994 481.393,227.463L481.393,204.049Z" style="fill-rule:nonzero;"/>
            </g>
            <g transform="matrix(0.630662,0,0,1.55357,134.75,-111.918)">
                <path d="M515.94,223.689L503.003,223.689L503.003,231.845L518.284,231.845L518.284,238.174L494.776,238.174L494.776,204.049L518.331,204.049L518.331,210.4L503.003,210.4L503.003,217.595L515.94,217.595L515.94,223.689Z" style="fill-rule:nonzero;"/>
            </g>
            <g transform="matrix(0.630662,0,0,1.55357,134.75,-111.918)">
                <path d="M549.245,226.619C549.135,228.994 548.495,231.092 547.323,232.912C546.151,234.732 544.506,236.142 542.389,237.142C540.272,238.142 537.854,238.642 535.135,238.642C530.651,238.642 527.12,237.181 524.542,234.26C521.963,231.338 520.674,227.213 520.674,221.885L520.674,220.197C520.674,216.853 521.256,213.928 522.42,211.42C523.585,208.912 525.26,206.974 527.448,205.607C529.635,204.24 532.167,203.556 535.042,203.556C539.182,203.556 542.51,204.646 545.026,206.826C547.542,209.006 548.971,212.01 549.315,215.838L541.112,215.838C541.049,213.76 540.526,212.267 539.542,211.361C538.557,210.455 537.057,210.002 535.042,210.002C532.995,210.002 531.495,210.767 530.542,212.299C529.588,213.83 529.088,216.275 529.042,219.635L529.042,222.049C529.042,225.689 529.499,228.291 530.413,229.853C531.327,231.416 532.901,232.197 535.135,232.197C537.026,232.197 538.471,231.752 539.471,230.861C540.471,229.97 541.003,228.556 541.065,226.619L549.245,226.619Z" style="fill-rule:nonzero;"/>
            </g>
            <g transform="matrix(0.630662,0,0,1.55357,134.75,-111.918)">
                <path d="M579.245,210.4L569.003,210.4L569.003,238.174L560.776,238.174L560.776,210.4L550.721,210.4L550.721,204.049L579.245,204.049L579.245,210.4Z" style="fill-rule:nonzero;"/>
            </g>
        </g>
        <g transform="matrix(2.66751e-17,-0.435638,0.435638,2.66751e-17,172.764,239.225)">
            <g transform="matrix(2.29549,0,0,2.29549,-111.881,-308.113)">
                <path d="M111.255,254.755L102.319,254.755L100.313,260.336L97.412,260.336L105.557,239.008L108.018,239.008L116.177,260.336L113.291,260.336L111.255,254.755ZM103.169,252.455L110.42,252.455L106.787,242.48L103.169,252.455Z" style="fill-rule:nonzero;"/>
            </g>
            <g transform="matrix(2.29549,0,0,2.29549,-111.881,-308.113)">
                <path d="M135.44,260.336L132.612,260.336L121.875,243.9L121.875,260.336L119.048,260.336L119.048,239.008L121.875,239.008L132.642,255.517L132.642,239.008L135.44,239.008L135.44,260.336Z" style="fill-rule:nonzero;"/>
            </g>
            <g transform="matrix(2.29549,0,0,2.29549,-111.881,-308.113)">
                <path d="M140.435,260.336L140.435,239.008L146.455,239.008C148.311,239.008 149.951,239.418 151.377,240.238C152.803,241.059 153.904,242.226 154.68,243.739C155.457,245.253 155.85,246.991 155.86,248.954L155.86,250.316C155.86,252.328 155.471,254.091 154.695,255.605C153.919,257.118 152.81,258.28 151.37,259.091C149.929,259.901 148.252,260.316 146.338,260.336L140.435,260.336ZM143.247,241.308L143.247,258.036L146.206,258.036C148.374,258.036 150.061,257.362 151.267,256.013C152.473,254.664 153.076,252.744 153.076,250.251L153.076,249.005C153.076,246.581 152.507,244.697 151.37,243.353C150.232,242.009 148.618,241.327 146.528,241.308L143.247,241.308Z" style="fill-rule:nonzero;"/>
            </g>
        </g>
        <g transform="matrix(1,0,0,1,0,4)">
            <path d="M86.362,97.716L700.733,97.716" style="fill:none;stroke:black;stroke-width:1px;"/>
        </g>
        <g transform="matrix(0.43865,0,0,0.435478,48.4792,169.301)">
            <path d="M86.362,97.716L700.733,97.716" style="fill:none;stroke:black;stroke-width:2.29px;"/>
        </g>
    </g>
</svg>
