<?xml version="1.0" encoding="UTF-8" standalone="no"?>
<!DOCTYPE svg PUBLIC "-//W3C//DTD SVG 1.1//EN" "http://www.w3.org/Graphics/SVG/1.1/DTD/svg11.dtd">
<svg width="100%" height="100%" viewBox="0 0 750 500" version="1.1" xmlns="http://www.w3.org/2000/svg" xmlns:xlink="http://www.w3.org/1999/xlink" xml:space="preserve" style="fill-rule:evenodd;clip-rule:evenodd;stroke-linecap:square;stroke-miterlimit:1.5;">
    <g id="Mountains" transform="matrix(1,0,0,1,-32.9341,-195.359)">
        <g transform="matrix(2.87469,0,0,3.56281,-214.798,-845.059)">
            <g id="Layer2">
                <path d="M123.914,314.91L123.963,314.911L124.011,314.912L124.059,314.914L124.107,314.917L124.155,314.92L124.203,314.924L124.251,314.928L124.299,314.932L124.347,314.938L124.395,314.943L124.443,314.95L124.491,314.956L124.539,314.964L124.586,314.971L124.634,314.98L124.681,314.988L124.729,314.998L124.776,315.007L124.823,315.018L124.871,315.028L124.918,315.04L124.965,315.051L125.012,315.063L125.059,315.076L125.106,315.089L125.152,315.102L125.199,315.116L125.246,315.13L125.292,315.145L125.339,315.16L125.385,315.176L125.431,315.192L125.477,315.208L125.523,315.225L125.569,315.243L125.615,315.26L125.661,315.278L125.707,315.297L125.753,315.316L125.799,315.335L125.844,315.354L125.89,315.374L125.935,315.395L125.98,315.416L126.026,315.437L126.071,315.458L126.116,315.48L126.161,315.502L126.206,315.525L126.251,315.548L126.296,315.571L126.341,315.595L126.386,315.619L126.43,315.643L126.475,315.668L126.52,315.693L126.564,315.718L126.609,315.744L126.653,315.77L126.697,315.796L126.742,315.823L126.786,315.85L126.83,315.877L126.874,315.905L126.918,315.933L126.962,315.961L127.006,315.989L127.05,316.018L127.094,316.047L127.137,316.077L127.181,316.107L127.225,316.137L127.268,316.167L127.312,316.198L127.355,316.229L127.399,316.26L127.442,316.292L127.486,316.323L127.529,316.355L127.572,316.388L127.615,316.42L127.658,316.453L127.702,316.487L127.745,316.52L127.83,316.588L127.916,316.657L128.002,316.726L128.087,316.797L128.151,316.852L128.172,316.869L128.257,316.942L128.341,317.016L128.426,317.091L128.51,317.167L128.594,317.243L128.677,317.321L128.761,317.399L128.844,317.479L128.927,317.559L129.01,317.64L129.093,317.722L129.175,317.804L129.258,317.888L129.34,317.972L129.421,318.057L129.503,318.143L129.584,318.229L129.665,318.316L129.746,318.404L129.827,318.492L129.907,318.581L129.987,318.67L130.067,318.761L130.146,318.851L130.226,318.943L130.305,319.035L130.384,319.127L130.462,319.22L130.54,319.313L130.618,319.407L130.696,319.502L130.774,319.596L130.851,319.692L130.928,319.787L131.004,319.883L131.08,319.98L131.156,320.076L131.232,320.173L131.307,320.271L131.382,320.368L131.457,320.466L131.531,320.565L131.605,320.663L131.679,320.762L131.752,320.861L131.825,320.96L131.898,321.059L131.97,321.159L132.042,321.258L132.114,321.358L132.185,321.458L132.256,321.558L132.326,321.658L132.396,321.758L132.466,321.858L132.535,321.958L132.604,322.058L132.672,322.158L132.741,322.258L132.808,322.358L132.876,322.458L132.942,322.558L133.009,322.658L133.075,322.757L133.14,322.857L133.205,322.956L133.27,323.055L133.334,323.154L133.398,323.253L133.461,323.351L133.524,323.45L133.649,323.645L133.695,323.718L133.77,323.84L133.889,324.033L134.005,324.225L134.12,324.416L134.233,324.604L134.344,324.791L134.452,324.975L134.558,325.158L134.663,325.337L134.764,325.515L134.864,325.689L134.961,325.861L135.056,326.03L135.149,326.196L135.239,326.358L135.326,326.517L135.411,326.672L135.494,326.824L135.574,326.972L135.651,327.116L135.726,327.256L135.797,327.391L135.867,327.522L135.933,327.649L135.996,327.77L136.057,327.887L136.115,327.999L136.17,328.106L136.27,328.303L136.358,328.478L136.434,328.63L136.496,328.757L136.529,328.824L138.718,329.918L142.514,331.816L152.596,333.367L152.684,333.386L152.769,333.414L152.848,333.451L157.811,336.19L160.305,337.592L162.374,338.837L164.057,339.903L164.78,340.265L170.123,342.836L176.349,345.642L176.41,345.668L176.349,345.642L170.034,342.961L164.423,340.74L163.646,340.446L161.841,339.587L159.695,338.506L157.211,337.162L154.342,335.579L152.21,334.403L146.725,333.559L142.143,332.854L142.064,332.838L141.988,332.814L141.917,332.783L137.977,330.813L135.638,329.643L135.551,329.592L135.476,329.53L135.415,329.459L135.368,329.381L135.368,329.381L135.34,329.322L135.305,329.251L135.257,329.153L135.196,329.03L135.122,328.882L135.036,328.71L134.937,328.516L134.884,328.411L134.827,328.301L134.767,328.186L134.705,328.067L134.64,327.942L134.572,327.813L134.501,327.68L134.428,327.542L134.352,327.4L134.273,327.255L134.192,327.105L134.108,326.952L134.022,326.796L133.933,326.636L133.842,326.473L133.749,326.306L133.653,326.137L133.555,325.965L133.455,325.791L133.353,325.614L133.248,325.434L133.141,325.253L133.032,325.069L132.922,324.884L132.809,324.697L132.694,324.508L132.578,324.318L132.504,324.199L132.46,324.126L132.341,323.933L132.281,323.836L132.221,323.739L132.16,323.641L132.098,323.543L132.037,323.446L131.975,323.348L131.912,323.249L131.849,323.151L131.786,323.053L131.722,322.954L131.658,322.856L131.593,322.757L131.528,322.658L131.463,322.56L131.397,322.461L131.331,322.362L131.265,322.264L131.198,322.165L131.131,322.067L131.064,321.969L130.996,321.87L130.928,321.772L130.859,321.674L130.79,321.577L130.721,321.479L130.652,321.382L130.582,321.285L130.512,321.188L130.442,321.091L130.371,320.995L130.3,320.899L130.229,320.803L130.158,320.708L130.086,320.613L130.014,320.518L129.942,320.424L129.869,320.33L129.797,320.237L129.724,320.144L129.65,320.052L129.577,319.96L129.503,319.868L129.429,319.777L129.355,319.687L129.281,319.597L129.207,319.508L129.132,319.419L129.057,319.332L128.982,319.244L128.907,319.158L128.831,319.072L128.756,318.986L128.68,318.902L128.604,318.818L128.528,318.735L128.452,318.653L128.376,318.571L128.3,318.491L128.223,318.411L128.147,318.332L128.07,318.254L127.993,318.177L127.916,318.1L127.839,318.025L127.762,317.951L127.685,317.877L127.608,317.805L127.531,317.733L127.454,317.663L127.377,317.593L127.3,317.525L127.281,317.509L127.223,317.458L127.146,317.392L127.069,317.327L126.992,317.263L126.915,317.199L126.877,317.169L126.838,317.138L126.8,317.108L126.761,317.078L126.723,317.048L126.685,317.018L126.646,316.989L126.608,316.96L126.57,316.932L126.531,316.904L126.493,316.876L126.455,316.848L126.417,316.821L126.379,316.794L126.341,316.767L126.302,316.741L126.264,316.715L126.226,316.689L126.188,316.664L126.151,316.639L126.113,316.615L126.075,316.59L126.037,316.566L125.999,316.543L125.962,316.52L125.924,316.497L125.886,316.474L125.849,316.452L125.811,316.43L125.774,316.409L125.737,316.388L125.699,316.367L125.662,316.346L125.625,316.326L125.588,316.307L125.551,316.287L125.514,316.268L125.477,316.25L125.44,316.232L125.404,316.214L125.367,316.196L125.33,316.179L125.294,316.163L125.258,316.146L125.221,316.13L125.185,316.115L125.149,316.1L125.113,316.085L125.077,316.07L125.041,316.056L125.006,316.043L124.97,316.029L124.935,316.016L124.899,316.004L124.864,315.992L124.829,315.98L124.794,315.969L124.759,315.958L124.724,315.947L124.689,315.937L124.655,315.927L124.62,315.918L124.586,315.909L124.552,315.9L124.517,315.892L124.483,315.884L124.449,315.876L124.416,315.869L124.382,315.863L124.348,315.856L124.315,315.85L124.282,315.845L124.249,315.839L124.215,315.835L124.182,315.83L124.15,315.826L124.117,315.822L124.084,315.819L124.052,315.816L124.019,315.814L123.987,315.811L123.955,315.81L123.922,315.808L123.89,315.807L123.858,315.807L123.826,315.806L123.795,315.806L123.763,315.807L123.731,315.808L123.699,315.809L123.668,315.811L123.636,315.813L123.605,315.815L123.573,315.818L123.542,315.821L123.51,315.825L123.479,315.829L123.448,315.833L123.416,315.838L123.385,315.843L123.354,315.848L123.322,315.854L123.291,315.861L123.26,315.868L123.228,315.875L123.197,315.883L123.165,315.891L123.134,315.899L123.102,315.908L123.071,315.918L123.039,315.928L123.008,315.938L122.976,315.949L122.944,315.96L122.913,315.972L122.881,315.984L122.849,315.997L122.817,316.01L122.785,316.024L122.753,316.038L122.721,316.053L122.688,316.068L122.656,316.084L122.624,316.1L122.591,316.117L122.559,316.134L122.526,316.152L122.494,316.17L122.461,316.189L122.428,316.209L122.395,316.229L122.362,316.25L122.329,316.271L122.296,316.293L122.263,316.315L122.23,316.338L122.197,316.362L122.164,316.386L122.13,316.411L122.097,316.436L122.064,316.462L122.03,316.489L121.997,316.516L121.963,316.544L121.93,316.573L121.896,316.602L121.863,316.632L121.829,316.662L121.795,316.693L121.761,316.725L121.728,316.757L121.694,316.79L121.66,316.824L121.626,316.858L121.593,316.893L121.559,316.929L121.525,316.965L121.491,317.002L121.457,317.04L121.424,317.078L121.39,317.117L121.356,317.157L121.322,317.197L121.288,317.239L121.255,317.28L121.221,317.323L121.187,317.366L121.153,317.41L121.12,317.454L121.086,317.499L121.052,317.545L121.019,317.592L120.985,317.639L120.952,317.687L120.918,317.736L120.885,317.786L120.851,317.836L120.818,317.887L120.784,317.938L120.75,317.992L120.743,318.003L120.714,318.048L120.677,318.106L120.638,318.164L120.599,318.223L120.559,318.282L120.518,318.341L120.476,318.4L120.434,318.46L120.391,318.52L120.347,318.58L120.302,318.641L120.256,318.702L120.21,318.763L120.163,318.824L120.115,318.886L120.067,318.948L120.017,319.011L119.967,319.073L119.916,319.136L119.865,319.2L119.812,319.263L119.759,319.327L119.705,319.391L119.651,319.456L119.595,319.521L119.539,319.586L119.483,319.651L119.425,319.717L119.367,319.782L119.308,319.849L119.248,319.915L119.188,319.982L119.127,320.049L119.065,320.116L119.003,320.184L118.94,320.252L118.876,320.32L118.812,320.389L118.746,320.457L118.68,320.526L118.614,320.596L118.547,320.665L118.479,320.735L118.41,320.805L118.341,320.876L118.271,320.946L118.201,321.017L118.129,321.088L118.057,321.16L117.985,321.232L117.912,321.304L117.838,321.376L117.764,321.448L117.688,321.521L117.613,321.594L117.536,321.667L117.46,321.741L117.382,321.815L117.304,321.889L117.225,321.963L117.146,322.037L117.065,322.112L116.904,322.263L116.739,322.414L116.573,322.566L116.404,322.719L116.232,322.873L116.059,323.028L115.883,323.184L115.705,323.341L115.525,323.498L115.481,323.537L115.342,323.657L115.157,323.816L114.97,323.976L114.781,324.136L114.59,324.298L114.396,324.46L114.201,324.623L114.004,324.787L113.804,324.952L113.603,325.117L113.4,325.283L113.195,325.45L112.989,325.617L112.78,325.785L112.57,325.954L112.358,326.123L112.144,326.293L111.928,326.464L111.711,326.635L111.492,326.807L111.272,326.98L111.05,327.153L110.826,327.327L110.601,327.501L110.532,327.554L110.374,327.675L110.145,327.85L109.914,328.025L109.683,328.2L109.45,328.376L109.215,328.553L108.979,328.73L108.742,328.907L108.504,329.085L108.264,329.263L108.024,329.442L107.782,329.621L107.538,329.8L107.294,329.98L107.049,330.16L106.803,330.34L106.555,330.521L106.307,330.702L106.057,330.883L105.807,331.064L105.556,331.246L105.303,331.428L105.05,331.61L104.964,331.672L104.796,331.793L104.54,331.975L104.284,332.157L104.027,332.339L103.77,332.522L103.511,332.704L103.252,332.887L102.993,333.07L102.732,333.253L102.472,333.436L102.21,333.62L101.948,333.803L101.686,333.986L101.423,334.169L101.16,334.353L100.896,334.536L100.632,334.719L100.368,334.903L100.103,335.086L99.838,335.269L99.573,335.452L99.307,335.635L99.193,335.714L99.041,335.818L98.775,336L98.508,336.183L98.241,336.365L97.975,336.546L97.708,336.728L97.441,336.91L97.174,337.091L96.907,337.272L96.64,337.453L96.373,337.634L96.106,337.814L95.84,337.994L95.307,338.353L94.775,338.711L94.244,339.068L93.715,339.423L93.186,339.776L92.66,340.127L92.135,340.476L91.612,340.823L91.092,341.168L90.574,341.511L90.059,341.851L89.547,342.188L89.038,342.523L88.532,342.855L88.03,343.184L87.951,343.236L87.532,343.509L87.038,343.832L86.548,344.151L86.062,344.466L85.582,344.778L85.106,345.086L84.635,345.391L84.17,345.691L83.71,345.988L83.257,346.28L82.809,346.568L82.368,346.851L81.933,347.13L81.505,347.404L81.084,347.673L80.67,347.938L80.263,348.197L79.864,348.451L79.473,348.7L79.09,348.944L78.715,349.181L78.489,349.325L78.349,349.414L77.991,349.64L77.643,349.86L77.303,350.074L76.973,350.283L76.342,350.68L75.751,351.051L75.202,351.395L74.697,351.71L74.237,351.997L73.825,352.254L73.462,352.479L73.15,352.672L72.89,352.833L72.591,353.017L72.537,353.051L72.416,353.125L72.415,353.126L72.415,353.125L72.414,353.125L72.415,353.124L72.535,353.049L72.589,353.016L72.888,352.83L73.146,352.669L73.457,352.474L73.819,352.248L74.23,351.99L74.688,351.701L75.192,351.384L75.739,351.038L76.328,350.665L76.956,350.265L77.285,350.056L77.623,349.84L77.97,349.618L78.327,349.391L78.466,349.301L78.691,349.157L79.065,348.917L79.446,348.672L79.835,348.422L80.232,348.166L80.637,347.905L81.049,347.638L81.468,347.367L81.894,347.09L82.326,346.809L82.765,346.523L83.21,346.232L83.66,345.937L84.117,345.638L84.579,345.335L85.046,345.027L85.518,344.715L85.995,344.4L86.477,344.08L86.963,343.757L87.453,343.431L87.868,343.153L87.946,343.101L88.444,342.768L88.945,342.432L89.45,342.093L89.957,341.752L90.467,341.407L90.98,341.06L91.495,340.71L92.012,340.357L92.531,340.003L93.052,339.646L93.574,339.287L94.097,338.926L94.621,338.564L95.145,338.199L95.67,337.833L95.933,337.65L96.196,337.466L96.458,337.282L96.721,337.097L96.983,336.912L97.246,336.727L97.508,336.541L97.77,336.355L98.032,336.169L98.294,335.983L98.555,335.796L98.817,335.609L98.965,335.503L99.078,335.422L99.339,335.236L99.6,335.049L99.86,334.862L100.12,334.675L100.38,334.487L100.639,334.3L100.898,334.112L101.156,333.925L101.413,333.737L101.67,333.55L101.927,333.362L102.183,333.174L102.438,332.987L102.692,332.799L102.946,332.611L103.199,332.424L103.451,332.236L103.703,332.049L103.953,331.861L104.203,331.674L104.452,331.487L104.616,331.363L104.7,331.3L104.948,331.114L105.195,330.928L105.441,330.742L105.685,330.557L105.929,330.372L106.172,330.186L106.414,330.002L106.654,329.817L106.893,329.633L107.132,329.449L107.369,329.266L107.605,329.082L107.839,328.899L108.072,328.717L108.304,328.535L108.535,328.353L108.764,328.172L108.992,327.991L109.218,327.811L109.443,327.631L109.667,327.452L109.889,327.273L110.042,327.149L110.109,327.095L110.329,326.918L110.547,326.741L110.764,326.565L110.979,326.39L111.192,326.215L111.403,326.041L111.613,325.868L111.821,325.695L112.028,325.523L112.232,325.351L112.435,325.181L112.636,325.011L112.835,324.841L113.032,324.673L113.227,324.505L113.42,324.338L113.611,324.172L113.8,324.007L113.987,323.843L114.172,323.679L114.355,323.516L114.536,323.355L114.714,323.194L114.848,323.073L114.891,323.034L115.065,322.875L115.238,322.718L115.408,322.561L115.576,322.405L115.741,322.25L115.904,322.097L116.065,321.944L116.223,321.793L116.379,321.642L116.456,321.567L116.532,321.493L116.608,321.418L116.683,321.344L116.757,321.271L116.831,321.197L116.904,321.124L116.977,321.051L117.049,320.979L117.12,320.906L117.19,320.835L117.26,320.763L117.329,320.692L117.398,320.62L117.466,320.55L117.533,320.479L117.6,320.409L117.666,320.339L117.731,320.27L117.795,320.201L117.859,320.132L117.922,320.063L117.985,319.995L118.046,319.927L118.107,319.86L118.168,319.793L118.227,319.726L118.286,319.659L118.344,319.593L118.402,319.527L118.458,319.462L118.514,319.397L118.569,319.332L118.624,319.267L118.677,319.203L118.73,319.14L118.783,319.076L118.834,319.013L118.885,318.951L118.935,318.889L118.984,318.827L119.032,318.765L119.08,318.704L119.127,318.643L119.173,318.583L119.218,318.523L119.263,318.464L119.306,318.405L119.349,318.346L119.391,318.288L119.433,318.23L119.473,318.172L119.513,318.115L119.552,318.059L119.59,318.002L119.627,317.947L119.663,317.891L119.699,317.836L119.734,317.782L119.767,317.728L119.801,317.674L119.827,317.63L119.834,317.62L119.868,317.564L119.903,317.507L119.938,317.451L119.974,317.396L120.009,317.341L120.045,317.287L120.081,317.233L120.117,317.181L120.153,317.128L120.189,317.077L120.226,317.026L120.262,316.976L120.299,316.926L120.336,316.877L120.373,316.829L120.41,316.781L120.447,316.734L120.485,316.688L120.522,316.642L120.56,316.596L120.598,316.552L120.636,316.508L120.674,316.464L120.713,316.422L120.751,316.379L120.79,316.338L120.829,316.297L120.868,316.256L120.907,316.217L120.947,316.177L120.986,316.139L121.026,316.101L121.066,316.064L121.106,316.027L121.147,315.991L121.187,315.955L121.228,315.92L121.269,315.885L121.31,315.852L121.351,315.818L121.392,315.786L121.434,315.754L121.475,315.722L121.517,315.691L121.559,315.661L121.602,315.631L121.644,315.602L121.687,315.573L121.73,315.546L121.773,315.518L121.816,315.491L121.859,315.465L121.903,315.44L121.947,315.415L121.991,315.39L122.035,315.366L122.079,315.343L122.124,315.321L122.169,315.299L122.214,315.277L122.259,315.256L122.304,315.236L122.349,315.216L122.395,315.197L122.441,315.179L122.487,315.161L122.533,315.144L122.579,315.127L122.625,315.112L122.672,315.096L122.719,315.081L122.765,315.067L122.812,315.054L122.859,315.041L122.907,315.029L122.954,315.017L123.001,315.006L123.049,314.995L123.096,314.985L123.144,314.976L123.192,314.968L123.24,314.96L123.288,314.952L123.336,314.945L123.384,314.939L123.432,314.934L123.48,314.929L123.528,314.924L123.576,314.92L123.625,314.917L123.673,314.915L123.721,314.913L123.77,314.911L123.818,314.91L123.866,314.91L123.914,314.91Z"/>
            </g>
        </g>
        <g transform="matrix(0.687417,0,0,1.34305,119.267,-105.52)">
            <g id="Layer3">
                <path d="M378.306,300.189L378.413,300.219L378.507,300.257L378.584,300.301L378.644,300.351L398.254,315.136L398.637,315.416L405.312,321.698L405.259,321.789L405.082,321.762L398.414,315.487L398.032,315.207L378.151,301.121L376.268,302.105L373.996,303.2L373.881,303.239L373.758,303.268L373.63,303.285L373.5,303.291L373.373,303.286L373.251,303.271L373.137,303.246L373.035,303.213L372.946,303.172L372.873,303.125L372.809,303.076L372.817,303.074L371.802,302.159L366.303,297.231L361.552,293.385L361.469,293.437L350.296,291.523L349.899,291.977L342.057,290.184L339.79,289.668L339.31,289.567L339.308,289.567L338.853,289.42L327.721,284.188L321.528,281.154L320.032,280.359L317.851,278.859L315.411,276.907L312.744,274.773L308.257,271.049L308.296,271.001L307.066,271.144L307.077,271.112L303.998,271.359L303.968,271.33L293.293,276.663L292.888,276.45L292.279,276.686L291.612,276.869L290.91,277.008L290.903,276.997L290.17,277.066L289.43,277.077L285.676,277.003L265.66,276.593L265.644,276.56L263.145,277.24L262.987,277.158L259.384,280.518L259.141,280.406L251.525,286.93L249.95,288.308L242.446,292.879L226.038,303.054L225.835,303.152L225.835,303.152L225.607,303.231L221.06,304.691L206.67,309.342L196.176,313.887L196.167,313.883L192.986,316.609L192.93,316.587L185.087,323.161L184.987,323.224L184.869,323.277L184.869,323.277L184.737,323.319L184.595,323.349L167.024,326.782L167.019,326.777L152.92,333.644L152.815,333.586L151.708,334.118L150.859,334.107L150.88,333.673L152.042,333.099L166.076,326.158L166.147,326.123L166.228,326.093L166.316,326.068L166.255,325.989L183.612,322.517L183.599,322.509L191.821,315.313L194.24,313.182L194.338,313.1L194.461,313.027L205.013,308.218L218.478,303.584L218.406,303.542L223.507,301.842L223.495,301.835L239.07,291.41L245.714,286.87L247.261,285.32L254.548,277.872L257.353,274.967L257.601,274.742L257.914,274.535L258.284,274.353L258.706,274.199L262.958,272.958L263.504,272.819L264.092,272.727L264.707,272.684L281.706,272.274L281.64,272.162L287.45,272.151L287.414,272.105L297.386,266.752L297.93,266.492L298.542,266.271L299.211,266.093L299.925,265.963L307.881,264.886L309.676,264.655L310.566,264.577L311.47,264.57L312.369,264.634L313.24,264.768L314.063,264.969L314.817,265.233L315.486,265.554L316.051,265.925L320.056,268.994L326.992,274.544L329.465,276.767L330.617,277.547L334.948,280.778L333.548,281.428L343.18,287.163L343.109,287.207L345.516,288.053L351.399,290.264L362.338,292.613L362.44,292.666L362.521,292.722L362.581,292.78L362.621,292.839L362.642,292.897L366.069,296.101L372.512,301.467L372.545,301.457L373.473,302.25L375.017,301.449L377.547,300.239L377.667,300.201L377.796,300.175L377.928,300.161L378.059,300.159L378.187,300.169L378.306,300.189Z"/>
            </g>
        </g>
        <g transform="matrix(2.16412,0,0,2.6082,-496.358,-506.732)">
            <g id="Layer4">
                <path d="M551.792,295.868L551.948,296.295L552.04,296.544L552.141,296.816L552.249,297.108L552.365,297.419L552.488,297.747L552.618,298.092L552.753,298.45L552.894,298.821L553.04,299.203L553.19,299.594L553.345,299.994L553.502,300.399L553.663,300.808L553.826,301.221L553.991,301.636L554.073,301.842L554.157,302.048L554.24,302.254L554.323,302.459L554.407,302.664L554.49,302.867L554.573,303.068L554.657,303.268L554.739,303.467L554.822,303.663L554.904,303.857L554.986,304.048L555.067,304.237L555.147,304.422L555.227,304.605L555.306,304.783L555.384,304.959L555.457,305.12L555.471,305.149L555.45,305.098L555.461,305.118L555.472,305.139L555.45,305.089L555.462,305.11L555.474,305.131L555.451,305.084L555.464,305.105L555.477,305.127L555.453,305.081L555.468,305.104L555.482,305.126L555.458,305.082L555.473,305.105L555.489,305.128L555.464,305.086L555.481,305.11L555.498,305.134L555.473,305.093L555.491,305.118L555.509,305.142L555.483,305.104L555.503,305.128L555.522,305.153L555.497,305.116L555.517,305.142L555.538,305.168L555.512,305.132L555.534,305.158L555.556,305.184L555.531,305.15L555.554,305.177L555.577,305.204L555.552,305.171L555.576,305.198L555.601,305.226L555.575,305.195L555.601,305.222L555.629,305.248L555.644,305.262L555.66,305.276L555.676,305.291L555.693,305.307L555.711,305.323L555.729,305.339L555.749,305.356L555.769,305.373L555.789,305.39L555.811,305.408L555.833,305.427L555.856,305.446L555.879,305.465L555.904,305.484L555.928,305.504L555.954,305.524L555.98,305.545L556.007,305.566L556.035,305.587L556.063,305.608L556.092,305.63L556.122,305.652L556.152,305.674L556.183,305.696L556.215,305.719L556.247,305.742L556.28,305.765L556.313,305.788L556.347,305.812L556.382,305.836L556.417,305.86L556.453,305.884L556.49,305.908L556.527,305.932L556.564,305.957L556.598,305.978L556.68,306.031L556.76,306.081L556.842,306.132L556.926,306.183L557.012,306.234L557.1,306.286L557.19,306.338L557.281,306.389L557.374,306.442L557.469,306.494L557.565,306.546L557.662,306.598L557.761,306.65L557.861,306.703L557.963,306.755L558.065,306.807L558.169,306.859L558.274,306.911L558.379,306.962L558.486,307.013L558.593,307.065L558.701,307.115L558.81,307.166L558.92,307.216L559.03,307.266L559.14,307.316L559.251,307.365L559.362,307.414L559.474,307.463L559.586,307.511L559.698,307.559L559.81,307.606L559.922,307.653L560.034,307.699L560.146,307.745L560.258,307.79L560.37,307.835L560.481,307.879L560.592,307.923L560.703,307.966L560.813,308.009L560.923,308.051L561.032,308.093L561.14,308.134L561.248,308.174L561.355,308.214L561.461,308.253L561.567,308.291L561.671,308.329L561.774,308.366L561.877,308.402L561.975,308.437L562.177,308.508L562.37,308.574L562.558,308.638L562.74,308.699L562.915,308.757L563.083,308.811L563.244,308.863L563.396,308.911L563.541,308.956L563.676,308.998L563.802,309.036L563.918,309.071L564.024,309.102L564.119,309.13L564.202,309.154L564.271,309.174L564.384,309.205L564.441,309.221L564.887,309.358L571.046,312.081L575.508,314.094L585.556,316.465L586.545,316.772L587.462,317.217L590.636,319.082L590.705,318.986L597.247,323.057L597.249,323.052L598.32,323.721L598.323,323.713L602.573,323.541L606.141,324.077L607.319,324.062L614.458,324.692L614.638,325.095L616.798,324.814L616.928,325.059L621.802,323.176L621.997,323.124L622.192,323.099L622.383,323.101L622.565,323.127L622.733,323.175L622.884,323.242L623.014,323.325L623.095,323.377L623.322,323.542L623.687,323.808L624.178,324.166L624.468,324.378L624.784,324.61L625.127,324.861L625.494,325.131L625.884,325.419L625.92,325.446L626.364,325.61L626.874,325.8L627.407,325.999L627.962,326.207L628.536,326.422L629.127,326.645L629.736,326.875L630.359,327.111L630.995,327.353L631.642,327.601L632.3,327.854L632.966,328.111L633.301,328.241L633.639,328.371L633.765,328.42L633.979,328.499L634.323,328.625L634.667,328.752L635.012,328.879L635.358,329.007L635.704,329.135L636.05,329.264L636.396,329.393L636.742,329.522L637.087,329.652L637.431,329.782L637.776,329.913L637.949,329.979L638.124,330.047L638.298,330.116L638.472,330.186L638.646,330.257L638.82,330.328L638.993,330.401L639.166,330.474L639.339,330.548L639.512,330.623L639.685,330.699L639.857,330.776L640.029,330.853L640.2,330.931L640.371,331.01L640.542,331.089L640.712,331.169L640.882,331.25L641.052,331.331L641.221,331.413L641.389,331.495L641.557,331.578L641.725,331.662L641.892,331.745L642.058,331.83L642.224,331.914L642.389,331.999L642.554,332.085L642.718,332.171L642.881,332.257L643.044,332.343L643.206,332.43L643.367,332.517L643.527,332.604L643.687,332.691L643.846,332.779L644.004,332.867L644.161,332.955L644.318,333.043L644.473,333.131L644.628,333.219L644.782,333.307L644.935,333.395L645.087,333.483L645.238,333.572L645.388,333.66L645.537,333.748L645.582,333.775L645.686,333.835L645.834,333.921L645.981,334.007L646.127,334.093L646.272,334.179L646.416,334.265L646.559,334.351L646.701,334.436L646.841,334.521L646.981,334.605L647.119,334.69L647.255,334.774L647.391,334.857L647.525,334.94L647.659,335.023L647.92,335.187L648.177,335.349L648.428,335.509L648.673,335.667L648.912,335.822L649.145,335.974L649.372,336.123L649.593,336.269L649.807,336.412L650.014,336.551L650.214,336.687L650.407,336.819L650.594,336.946L650.772,337.07L650.943,337.189L651.107,337.303L651.262,337.412L651.41,337.517L651.549,337.616L651.68,337.709L651.803,337.798L651.917,337.88L652.022,337.957L652.204,338.09L652.35,338.198L652.458,338.279L652.459,338.278L652.026,337.939L671.006,344.039L671.44,344.172L671.854,344.36L672.24,344.599L672.587,344.888L674.815,347.44L678.568,351.691L678.858,352.075L679.085,352.492L679.244,352.933L679.249,352.949L679.243,352.92L679.255,352.953L679.275,353.004L679.288,353.034L679.304,353.074L679.323,353.121L679.344,353.175L679.369,353.235L679.396,353.3L679.426,353.372L679.459,353.449L679.494,353.532L679.533,353.62L679.575,353.713L679.62,353.811L679.667,353.914L679.718,354.021L679.772,354.133L679.83,354.251L679.858,354.307L679.889,354.367L679.92,354.428L679.952,354.49L679.985,354.553L680.018,354.617L680.053,354.681L680.088,354.746L680.124,354.812L680.16,354.879L680.198,354.947L680.236,355.015L680.275,355.083L680.315,355.153L680.356,355.223L680.397,355.294L680.44,355.365L680.483,355.436L680.527,355.509L680.571,355.581L680.617,355.654L680.663,355.728L680.71,355.802L680.758,355.876L680.807,355.951L680.857,356.026L680.907,356.101L680.958,356.177L681.01,356.253L681.063,356.329L681.117,356.405L681.171,356.482L681.226,356.558L681.282,356.635L681.339,356.712L681.397,356.789L681.455,356.866L681.514,356.943L681.574,357.02L681.635,357.097L681.697,357.174L681.759,357.251L681.822,357.328L681.886,357.405L681.951,357.481L682.016,357.558L682.082,357.634L682.149,357.71L682.217,357.786L682.285,357.861L682.354,357.936L682.424,358.011L682.495,358.086L682.566,358.16L682.638,358.234L682.711,358.307L682.784,358.38L682.859,358.453L682.933,358.525L683.009,358.597L683.085,358.668L683.162,358.739L683.24,358.809L683.318,358.878L683.397,358.947L683.477,359.016L683.557,359.084L683.638,359.151L683.719,359.217L683.802,359.283L683.884,359.348L683.968,359.413L684.055,359.48L684.094,359.508L684.136,359.539L684.179,359.571L684.221,359.602L684.264,359.632L684.307,359.663L684.35,359.694L684.393,359.724L684.437,359.754L684.48,359.784L684.524,359.813L684.568,359.843L684.612,359.872L684.656,359.901L684.7,359.93L684.744,359.959L684.789,359.987L684.834,360.015L684.878,360.043L684.923,360.071L684.968,360.099L685.013,360.125L685.057,360.151L685.102,360.178L685.148,360.205L685.196,360.232L685.245,360.261L685.296,360.29L685.348,360.319L685.401,360.349L685.456,360.38L685.512,360.411L685.57,360.443L685.629,360.476L685.689,360.508L685.75,360.542L685.812,360.575L685.872,360.607L686.007,360.679L686.143,360.751L686.283,360.823L686.428,360.897L686.576,360.973L686.729,361.05L686.885,361.127L687.045,361.206L687.209,361.286L687.377,361.367L687.548,361.449L687.722,361.531L687.899,361.614L688.079,361.698L688.262,361.783L688.449,361.868L688.637,361.954L688.829,362.041L689.023,362.128L689.219,362.215L689.418,362.303L689.619,362.391L689.822,362.48L690.027,362.569L690.234,362.658L690.442,362.747L690.653,362.837L690.865,362.926L691.079,363.016L691.294,363.106L691.51,363.196L691.728,363.287L691.947,363.377L692.167,363.467L692.388,363.557L692.61,363.647L692.833,363.737L693.057,363.827L693.281,363.917L693.506,364.006L693.731,364.096L693.956,364.185L694.182,364.274L694.409,364.362L694.635,364.451L694.861,364.539L695.087,364.626L695.313,364.714L695.539,364.801L695.763,364.886L696.215,365.059L696.663,365.228L697.108,365.396L697.549,365.561L697.986,365.723L698.419,365.883L698.845,366.04L699.266,366.194L699.68,366.344L700.086,366.491L700.484,366.635L700.873,366.774L701.253,366.91L701.622,367.041L701.981,367.168L702.328,367.29L702.663,367.407L702.986,367.52L703.295,367.628L703.59,367.73L703.87,367.827L704.135,367.918L704.382,368.002L704.832,368.156L705.207,368.283L705.506,368.383L705.534,368.392L705.722,368.454L705.904,368.514L705.909,368.516L708.171,369.994L709.535,372.019L709.891,374.322L709.134,376.633L709.129,376.64L707.346,378.523L704.906,379.66L702.134,379.96L699.354,379.335L699.35,379.333L699.169,379.241L698.974,379.143L698.944,379.128L698.644,378.976L698.272,378.786L697.835,378.562L697.59,378.436L697.332,378.302L697.059,378.161L696.772,378.012L696.472,377.856L696.16,377.692L695.835,377.522L695.499,377.345L695.152,377.162L694.794,376.973L694.427,376.778L694.051,376.577L693.666,376.371L693.273,376.159L692.873,375.943L692.466,375.723L692.053,375.498L691.634,375.268L691.21,375.035L690.782,374.799L690.349,374.559L689.914,374.315L689.477,374.07L689.255,373.945L689.034,373.821L688.813,373.695L688.592,373.569L688.37,373.443L688.148,373.316L687.926,373.189L687.704,373.061L687.482,372.932L687.26,372.804L687.038,372.674L686.817,372.545L686.595,372.415L686.374,372.285L686.154,372.155L685.934,372.024L685.714,371.893L685.495,371.762L685.277,371.631L685.059,371.499L684.842,371.368L684.626,371.236L684.411,371.105L684.197,370.973L683.984,370.841L683.772,370.709L683.561,370.578L683.352,370.446L683.144,370.314L682.937,370.183L682.731,370.051L682.527,369.92L682.325,369.789L682.124,369.657L681.924,369.526L681.726,369.395L681.53,369.265L681.336,369.134L681.144,369.004L680.953,368.874L680.764,368.743L680.577,368.613L680.392,368.484L680.209,368.354L680.028,368.224L679.849,368.095L679.672,367.966L679.497,367.836L679.324,367.707L679.157,367.58L679.069,367.513L678.984,367.448L678.901,367.383L678.818,367.318L678.735,367.253L678.653,367.188L678.571,367.123L678.49,367.058L678.409,366.992L678.329,366.927L678.25,366.861L678.17,366.795L678.092,366.729L678.013,366.663L677.936,366.596L677.859,366.53L677.784,366.465L677.711,366.4L677.638,366.335L677.566,366.27L677.494,366.204L677.423,366.139L677.352,366.073L677.282,366.008L677.213,365.942L677.144,365.876L677.076,365.81L677.008,365.744L676.941,365.678L676.874,365.612L676.808,365.545L676.742,365.479L676.677,365.412L676.613,365.346L676.549,365.279L676.485,365.212L676.423,365.146L676.357,365.075L676.237,364.945L676.116,364.811L675.997,364.677L675.88,364.543L675.765,364.408L675.652,364.274L675.541,364.14L675.432,364.005L675.325,363.871L675.22,363.736L675.116,363.602L675.015,363.468L674.915,363.334L674.817,363.2L674.721,363.066L674.627,362.932L674.534,362.799L674.444,362.665L674.355,362.533L674.267,362.4L674.181,362.268L674.097,362.135L674.015,362.004L673.934,361.873L673.854,361.742L673.777,361.611L673.7,361.481L673.626,361.351L673.552,361.222L673.481,361.094L673.41,360.966L673.341,360.838L673.274,360.711L673.208,360.585L673.143,360.459L673.08,360.334L673.018,360.209L672.957,360.085L672.898,359.962L672.84,359.84L672.783,359.718L672.728,359.597L672.674,359.477L672.621,359.357L672.569,359.238L672.518,359.121L672.469,359.004L672.42,358.887L672.373,358.772L672.327,358.658L672.282,358.544L672.238,358.432L672.195,358.32L672.154,358.21L672.113,358.1L672.073,357.992L672.035,357.884L671.997,357.778L671.961,357.673L671.925,357.568L671.89,357.465L671.856,357.363L671.824,357.262L671.792,357.163L671.761,357.064L671.731,356.967L671.701,356.871L671.673,356.776L671.645,356.683L671.619,356.59L671.593,356.5L671.568,356.41L671.542,356.319L671.497,356.15L671.454,355.983L671.413,355.822L671.376,355.667L671.341,355.519L671.308,355.376L671.278,355.24L671.251,355.111L671.226,354.988L671.203,354.872L671.182,354.763L671.177,354.738L668.998,351.899L669.324,351.655L667.288,348.723L667.377,348.638L649.818,341.907L650.412,340.841L650.216,340.722L650.043,340.585L649.894,340.435L649.895,340.434L649.827,340.366L649.746,340.285L649.632,340.171L649.486,340.026L649.402,339.943L649.31,339.854L649.211,339.757L649.104,339.654L648.991,339.545L648.87,339.429L648.742,339.308L648.607,339.181L648.466,339.048L648.318,338.911L648.164,338.768L648.004,338.62L647.837,338.468L647.664,338.311L647.486,338.15L647.301,337.985L647.111,337.816L646.915,337.643L646.714,337.467L646.508,337.288L646.297,337.106L646.08,336.921L645.858,336.733L645.746,336.638L645.632,336.543L645.518,336.447L645.402,336.351L645.284,336.254L645.166,336.157L645.047,336.059L644.926,335.96L644.805,335.862L644.682,335.763L644.559,335.664L644.434,335.564L644.308,335.464L644.182,335.364L644.093,335.294L644.054,335.264L643.924,335.164L643.793,335.065L643.661,334.965L643.529,334.865L643.395,334.766L643.261,334.666L643.125,334.566L642.989,334.466L642.852,334.366L642.715,334.266L642.576,334.166L642.437,334.066L642.297,333.966L642.156,333.866L642.014,333.767L641.872,333.668L641.729,333.568L641.585,333.47L641.441,333.371L641.296,333.273L641.15,333.175L641.004,333.077L640.857,332.979L640.709,332.882L640.561,332.786L640.413,332.69L640.264,332.594L640.114,332.499L639.964,332.404L639.813,332.31L639.662,332.216L639.51,332.123L639.358,332.031L639.206,331.939L639.053,331.848L638.9,331.758L638.746,331.668L638.592,331.579L638.438,331.491L638.283,331.403L638.128,331.317L637.973,331.231L637.817,331.146L637.661,331.062L637.505,330.979L637.349,330.896L637.192,330.815L636.873,330.651L636.552,330.487L636.23,330.323L635.908,330.159L635.586,329.995L635.263,329.832L634.94,329.669L634.617,329.506L634.295,329.344L633.973,329.183L633.652,329.023L633.451,328.923L633.33,328.865L633.007,328.713L632.686,328.562L632.047,328.263L631.417,327.968L630.795,327.679L630.185,327.396L629.587,327.12L629.003,326.851L628.434,326.59L627.883,326.338L627.35,326.095L626.837,325.862L626.347,325.639L625.92,325.446L625.873,325.438L625.36,325.356L624.879,325.279L624.43,325.208L624.016,325.142L623.638,325.083L622.997,324.983L622.853,324.96L618.473,327.553L619.177,328.383L619.017,328.676L618.743,328.862L618.785,328.959L618.482,329.22L617.337,329.673L609.141,333.041L607.607,333.511L601.466,334.406L596.568,334.574L595.45,334.531L594.358,334.33L594.358,334.329L593.324,333.975L593.181,333.9L592.388,333.472L585.506,329.032L580.839,325.996L580.854,325.972L570.619,323.318L570.742,323.087L566.1,320.718L559.976,317.533L559.929,317.517L559.79,317.465L559.64,317.41L559.479,317.349L559.308,317.284L559.127,317.215L558.937,317.141L558.738,317.063L558.53,316.981L558.314,316.894L558.091,316.803L557.86,316.708L557.622,316.609L557.38,316.507L557.253,316.452L557.126,316.398L556.999,316.343L556.87,316.287L556.739,316.229L556.608,316.171L556.475,316.112L556.341,316.052L556.205,315.99L556.069,315.928L555.931,315.865L555.793,315.801L555.653,315.736L555.513,315.669L555.372,315.602L555.23,315.534L555.087,315.465L554.943,315.395L554.798,315.324L554.653,315.252L554.508,315.179L554.361,315.105L554.215,315.03L554.067,314.954L553.919,314.877L553.771,314.799L553.623,314.72L553.474,314.64L553.325,314.559L553.176,314.477L553.026,314.394L552.876,314.31L552.727,314.225L552.577,314.139L552.427,314.051L552.277,313.963L552.127,313.874L551.978,313.783L551.828,313.691L551.679,313.599L551.53,313.505L551.381,313.41L551.232,313.313L551.084,313.216L550.936,313.117L550.788,313.017L550.641,312.915L550.495,312.813L550.349,312.709L550.203,312.603L550.058,312.496L549.919,312.391L549.842,312.333L549.77,312.278L549.699,312.222L549.628,312.166L549.556,312.11L549.485,312.053L549.415,311.996L549.344,311.938L549.274,311.88L549.204,311.822L549.134,311.763L549.064,311.703L548.995,311.643L548.926,311.583L548.857,311.522L548.788,311.461L548.72,311.399L548.652,311.337L548.584,311.274L548.517,311.21L548.449,311.146L548.382,311.082L548.316,311.017L548.25,310.951L548.184,310.885L548.118,310.818L548.053,310.751L547.988,310.683L547.924,310.614L547.86,310.545L547.796,310.475L547.733,310.404L547.67,310.333L547.608,310.261L547.546,310.189L547.485,310.115L547.424,310.041L547.363,309.966L547.303,309.891L547.244,309.814L547.185,309.737L547.127,309.659L547.07,309.581L547.013,309.501L546.957,309.421L546.901,309.339L546.846,309.257L546.792,309.174L546.739,309.09L546.686,309.006L546.634,308.92L546.583,308.834L546.533,308.746L546.484,308.658L546.436,308.568L546.389,308.478L546.343,308.387L546.298,308.294L546.254,308.201L546.211,308.107L546.169,308.012L546.129,307.916L546.09,307.819L546.056,307.731L545.981,307.521L545.91,307.318L545.84,307.113L545.769,306.906L545.698,306.696L545.627,306.485L545.557,306.272L545.486,306.058L545.416,305.841L545.345,305.624L545.275,305.406L545.205,305.186L545.135,304.966L545.066,304.745L544.997,304.524L544.928,304.303L544.86,304.081L544.791,303.859L544.658,303.419L544.525,302.98L544.396,302.546L544.269,302.118L544.146,301.697L544.026,301.285L543.909,300.883L543.798,300.494L543.69,300.118L543.588,299.757L543.491,299.413L543.4,299.087L543.314,298.781L543.235,298.496L543.201,298.373L533.92,292.513L534.177,292.232L533.777,291.924L533.431,291.576L533.431,291.576L533.408,291.549L533.335,291.463L533.281,291.4L533.213,291.322L533.133,291.23L533.041,291.125L532.937,291.008L532.822,290.879L532.696,290.739L532.559,290.588L532.412,290.427L532.255,290.256L532.088,290.077L531.912,289.889L531.726,289.691L531.632,289.592L531.534,289.489L531.434,289.385L531.332,289.279L531.228,289.172L531.123,289.063L531.015,288.953L530.993,288.93L530.906,288.841L530.794,288.728L530.681,288.614L530.567,288.499L530.451,288.383L530.333,288.266L530.213,288.148L530.092,288.029L529.97,287.909L529.846,287.789L529.721,287.668L529.594,287.546L529.466,287.425L529.337,287.302L529.207,287.18L529.075,287.057L528.943,286.934L528.809,286.811L528.675,286.688L528.539,286.565L528.403,286.442L528.265,286.32L528.127,286.197L527.988,286.075L527.849,285.954L527.709,285.833L527.568,285.712L527.427,285.592L527.285,285.473L527.143,285.355L527,285.238L526.858,285.121L526.715,285.006L526.571,284.892L526.428,284.779L526.285,284.667L526.139,284.555L526.07,284.502L525.998,284.448L525.927,284.394L525.855,284.34L525.784,284.287L525.713,284.234L525.641,284.182L525.57,284.13L525.499,284.078L525.428,284.027L525.357,283.977L525.286,283.927L525.216,283.877L525.145,283.828L525.075,283.779L525.005,283.731L524.935,283.683L524.865,283.636L524.796,283.589L524.726,283.543L524.657,283.497L524.588,283.452L524.519,283.408L524.451,283.364L524.383,283.321L524.315,283.278L524.247,283.236L524.18,283.194L524.113,283.153L524.047,283.113L523.981,283.073L523.915,283.034L523.849,282.996L523.784,282.958L523.719,282.921L523.655,282.885L523.591,282.849L523.528,282.814L523.465,282.78L523.403,282.747L523.341,282.714L523.28,282.682L523.219,282.65L523.159,282.619L523.099,282.59L523.04,282.56L522.982,282.532L522.924,282.504L522.867,282.477L522.81,282.451L522.755,282.426L522.7,282.401L522.645,282.377L522.592,282.354L522.539,282.332L522.487,282.31L522.436,282.29L522.386,282.27L522.337,282.25L522.289,282.232L522.241,282.214L522.195,282.198L522.15,282.181L522.105,282.166L522.062,282.151L522.02,282.138L521.96,282.12L521.997,282.129L521.938,282.112L521.88,282.096L521.919,282.105L521.862,282.089L521.805,282.075L521.845,282.083L521.79,282.07L521.735,282.057L521.777,282.064L521.723,282.052L521.669,282.041L521.714,282.048L521.661,282.037L521.609,282.028L521.655,282.034L521.605,282.025L521.554,282.017L521.603,282.022L521.553,282.014L521.505,282.008L521.555,282.012L521.508,282.006L521.46,282L521.513,282.004L521.468,281.999L521.422,281.995L521.477,281.997L521.433,281.993L521.389,281.99L521.446,281.991L521.403,281.989L521.361,281.987L521.42,281.986L521.379,281.985L521.339,281.985L521.4,281.981L521.36,281.982L521.321,281.982L521.384,281.977L521.314,281.981L521.378,281.975L521.308,281.98L521.356,281.975L521.322,281.978L521.354,281.974L521.32,281.977L521.352,281.973L521.318,281.977L521.35,281.972L521.316,281.976L521.348,281.971L521.314,281.975L521.347,281.97L521.313,281.975L521.346,281.969L521.312,281.974L521.345,281.968L521.311,281.973L521.344,281.967L521.31,281.972L521.344,281.966L521.323,281.969L521.211,281.988L521.092,282.009L520.97,282.031L520.844,282.055L520.715,282.08L520.583,282.106L520.449,282.134L520.311,282.162L520.171,282.192L520.028,282.223L519.882,282.255L519.734,282.288L519.584,282.322L519.431,282.357L519.276,282.393L519.119,282.43L518.96,282.468L518.8,282.507L518.637,282.547L518.472,282.588L518.306,282.63L518.138,282.672L517.969,282.715L517.798,282.759L517.626,282.804L517.452,282.85L517.277,282.896L517.101,282.943L516.923,282.99L516.745,283.038L516.565,283.087L516.385,283.136L516.204,283.186L516.023,283.236L515.655,283.339L515.286,283.444L514.914,283.55L514.542,283.657L514.167,283.766L513.793,283.876L513.418,283.987L513.043,284.099L512.67,284.211L512.297,284.324L511.926,284.436L511.558,284.549L511.192,284.662L510.829,284.775L510.469,284.887L510.114,284.998L509.763,285.109L509.417,285.218L509.076,285.326L508.741,285.433L508.413,285.539L508.091,285.642L507.776,285.744L507.469,285.844L507.17,285.941L506.88,286.036L506.599,286.128L506.064,286.304L505.571,286.467L505.123,286.616L504.724,286.75L504.377,286.867L504.194,286.929L504.114,287.029L504.009,287.16L503.897,287.299L503.777,287.446L503.65,287.601L503.515,287.763L503.373,287.932L503.224,288.107L503.069,288.287L502.988,288.382L502.906,288.476L502.822,288.572L502.736,288.669L502.649,288.767L502.56,288.866L502.47,288.967L502.378,289.069L502.284,289.172L502.189,289.275L502.093,289.38L501.994,289.486L501.895,289.593L501.794,289.7L501.691,289.808L501.587,289.917L501.482,290.027L501.375,290.137L501.267,290.248L501.157,290.359L501.046,290.471L500.934,290.583L500.82,290.696L500.705,290.809L500.589,290.922L500.471,291.036L500.353,291.149L500.232,291.263L500.111,291.377L499.989,291.492L499.865,291.606L499.74,291.72L499.614,291.834L499.486,291.948L499.358,292.062L499.228,292.175L499.097,292.289L498.965,292.402L498.832,292.514L498.698,292.626L498.562,292.738L498.426,292.85L498.288,292.96L498.15,293.071L498.01,293.18L497.869,293.289L497.728,293.397L497.585,293.504L497.441,293.611L497.297,293.715L497.223,293.769L497.15,293.821L497.077,293.873L497.003,293.925L496.929,293.977L496.855,294.028L496.781,294.079L496.706,294.13L496.631,294.18L496.556,294.23L496.481,294.28L496.405,294.33L496.329,294.379L496.253,294.428L496.176,294.477L496.1,294.525L496.023,294.573L495.945,294.621L495.868,294.668L495.79,294.715L495.712,294.762L495.634,294.808L495.556,294.854L495.477,294.899L495.398,294.944L495.318,294.989L495.239,295.033L495.159,295.077L495.079,295.121L494.999,295.164L494.918,295.207L494.837,295.249L494.756,295.291L494.675,295.332L494.593,295.373L494.511,295.414L494.429,295.454L494.346,295.493L494.263,295.532L494.18,295.571L494.097,295.609L494.013,295.647L493.929,295.684L493.845,295.72L493.761,295.756L493.676,295.792L493.591,295.826L493.505,295.861L493.42,295.895L493.334,295.928L493.247,295.96L493.161,295.992L493.074,296.024L492.987,296.055L492.899,296.085L492.812,296.114L492.723,296.143L492.635,296.171L492.546,296.199L492.457,296.226L492.368,296.252L492.278,296.277L492.188,296.302L492.117,296.321L492.098,296.326L492.008,296.35L491.917,296.373L491.826,296.395L491.735,296.416L491.643,296.437L491.551,296.456L491.459,296.475L491.366,296.493L491.273,296.511L491.18,296.527L491.086,296.542L490.993,296.557L490.899,296.571L490.804,296.583L490.709,296.595L490.622,296.605L490.476,296.62L490.336,296.635L490.193,296.651L490.047,296.667L489.899,296.684L489.749,296.702L489.596,296.72L489.442,296.738L489.285,296.758L489.126,296.778L488.966,296.798L488.804,296.819L488.472,296.863L488.135,296.908L487.791,296.956L487.441,297.005L487.086,297.056L486.726,297.109L486.362,297.163L485.993,297.218L485.621,297.275L485.246,297.334L484.868,297.393L484.488,297.453L484.107,297.514L483.724,297.576L483.34,297.639L482.956,297.703L482.571,297.767L482.187,297.831L481.805,297.896L481.423,297.961L481.043,298.026L480.666,298.091L480.291,298.156L479.919,298.221L479.551,298.286L479.187,298.35L478.827,298.414L478.472,298.477L477.778,298.602L477.109,298.723L476.468,298.84L475.858,298.952L475.284,299.059L474.747,299.159L474.253,299.252L473.804,299.336L473.404,299.412L473.056,299.479L472.764,299.535L472.382,299.608L471.333,300.129L471.318,300.108L463.685,303.794L457.469,306.869L452.738,309.978L448.782,313.112L446.9,314.781L439.784,321.332L439.12,321.785L438.363,322.15L437.531,322.415L436.687,322.561L436.643,322.561L435.748,322.45L434.897,322.225L434.083,321.941L434.11,321.895L433.407,321.471L432.802,320.967L430.304,318.438L430.224,318.444L430.09,318.453L429.955,318.461L429.819,318.469L429.681,318.475L429.541,318.48L429.4,318.485L429.258,318.488L429.114,318.49L428.969,318.491L428.822,318.491L428.674,318.489L428.525,318.487L428.374,318.483L428.222,318.478L428.068,318.472L427.914,318.464L427.758,318.455L427.6,318.445L427.442,318.433L427.282,318.421L427.121,318.406L426.958,318.391L426.795,318.373L426.63,318.355L426.464,318.335L426.297,318.313L426.128,318.29L425.959,318.265L425.788,318.239L425.616,318.212L425.443,318.182L425.269,318.151L425.094,318.119L424.918,318.085L424.741,318.049L424.562,318.011L424.383,317.972L424.206,317.931L424.112,317.91L424.021,317.888L423.93,317.866L423.839,317.844L423.747,317.821L423.655,317.798L423.563,317.774L423.47,317.75L423.378,317.725L423.285,317.7L423.192,317.674L423.098,317.648L423.005,317.622L422.911,317.595L422.817,317.567L422.722,317.539L422.628,317.511L422.533,317.482L422.438,317.453L422.343,317.423L422.247,317.393L422.151,317.362L422.055,317.331L421.959,317.299L421.862,317.267L421.766,317.234L421.669,317.201L421.571,317.167L421.474,317.133L421.376,317.099L421.278,317.063L421.18,317.028L421.082,316.992L420.983,316.955L420.884,316.918L420.785,316.88L420.686,316.842L420.587,316.803L420.487,316.764L420.387,316.724L420.287,316.684L420.186,316.643L420.086,316.602L419.985,316.56L419.884,316.518L419.782,316.475L419.681,316.431L419.579,316.388L419.477,316.343L419.375,316.298L419.272,316.252L419.17,316.206L419.067,316.16L418.964,316.112L418.861,316.065L418.757,316.016L418.653,315.967L418.596,315.939L418.56,315.926L418.517,315.912L418.56,315.924L418.508,315.908L418.55,315.919L418.497,315.904L418.539,315.914L418.486,315.9L418.527,315.909L418.473,315.895L418.514,315.904L418.459,315.891L418.499,315.899L418.444,315.887L418.484,315.894L418.428,315.883L418.467,315.889L418.41,315.879L418.449,315.884L418.391,315.875L418.429,315.88L418.371,315.871L418.408,315.875L418.349,315.867L418.386,315.87L418.326,315.863L418.362,315.866L418.302,315.86L418.337,315.862L418.276,315.856L418.311,315.858L418.266,315.854L418.221,315.851L418.254,315.852L418.207,315.849L418.16,315.846L418.191,315.846L418.143,315.844L418.093,315.843L418.123,315.843L418.073,315.842L418.021,315.842L418.05,315.841L417.997,315.841L417.944,315.842L417.971,315.84L417.917,315.842L417.862,315.844L417.887,315.842L417.831,315.845L417.774,315.849L417.798,315.846L417.74,315.851L417.681,315.856L417.704,315.853L417.644,315.858L417.584,315.865L417.606,315.862L417.544,315.869L417.481,315.876L417.502,315.873L417.439,315.881L417.384,315.888L417.329,315.896L417.273,315.905L417.215,315.914L417.157,315.924L417.097,315.935L417.036,315.946L416.975,315.958L416.912,315.97L416.848,315.983L416.784,315.997L416.718,316.012L416.652,316.027L416.585,316.043L416.516,316.06L416.447,316.077L416.377,316.095L416.307,316.114L416.235,316.133L416.162,316.153L416.089,316.174L416.015,316.195L415.94,316.217L415.864,316.24L415.788,316.263L415.71,316.288L415.632,316.312L415.554,316.338L415.474,316.364L415.394,316.391L415.313,316.418L415.231,316.446L415.149,316.475L415.066,316.504L414.982,316.534L414.898,316.565L414.813,316.597L414.727,316.629L414.641,316.661L414.554,316.694L414.466,316.728L414.378,316.763L414.289,316.798L414.2,316.834L414.11,316.87L414.019,316.907L413.928,316.945L413.837,316.983L413.744,317.022L413.651,317.062L413.558,317.102L413.464,317.142L413.37,317.184L413.275,317.225L413.179,317.268L413.083,317.311L412.986,317.355L412.889,317.399L412.792,317.443L412.694,317.489L412.595,317.535L412.496,317.581L412.396,317.628L412.296,317.676L412.196,317.724L412.096,317.772L411.891,317.872L411.686,317.973L411.479,318.076L411.271,318.181L411.06,318.289L410.848,318.398L410.635,318.51L410.42,318.623L410.203,318.739L409.985,318.856L409.765,318.975L409.544,319.096L409.322,319.219L409.098,319.344L408.872,319.471L408.646,319.599L408.418,319.729L408.189,319.861L407.959,319.995L407.727,320.13L407.495,320.267L407.261,320.405L407.026,320.545L406.791,320.687L406.554,320.83L406.316,320.974L406.077,321.12L405.837,321.268L405.596,321.417L405.355,321.567L405.112,321.719L404.869,321.872L404.625,322.026L404.38,322.182L404.134,322.338L403.888,322.497L403.641,322.656L403.393,322.816L403.145,322.978L402.896,323.141L402.647,323.305L402.397,323.47L402.146,323.636L401.895,323.803L401.643,323.971L401.391,324.14L401.139,324.31L400.886,324.48L400.633,324.652L400.379,324.825L400.125,324.998L399.871,325.173L399.616,325.348L399.362,325.523L399.107,325.7L398.852,325.877L398.597,326.055L398.341,326.234L398.086,326.413L397.83,326.593L397.574,326.774L397.319,326.955L397.063,327.136L396.807,327.318L396.552,327.501L396.296,327.684L396.041,327.867L395.926,327.95L395.786,328.052L395.532,328.237L395.278,328.423L395.024,328.609L394.771,328.795L394.518,328.981L394.265,329.168L394.012,329.355L393.76,329.542L393.508,329.73L393.256,329.917L393.005,330.105L392.755,330.293L392.504,330.481L392.254,330.668L392.005,330.856L391.756,331.044L391.508,331.232L391.013,331.608L390.521,331.983L390.032,332.357L389.545,332.731L389.062,333.104L388.582,333.475L388.105,333.845L387.632,334.214L387.164,334.58L386.699,334.945L386.238,335.307L385.782,335.667L385.331,336.025L384.884,336.379L384.443,336.73L384.007,337.079L383.577,337.423L383.152,337.764L382.733,338.102L382.32,338.435L381.914,338.764L381.514,339.088L381.12,339.408L380.734,339.723L380.355,340.033L379.982,340.337L379.618,340.637L379.261,340.93L378.912,341.218L378.571,341.499L378.238,341.775L377.914,342.043L377.599,342.306L377.292,342.561L376.994,342.809L376.706,343.05L376.427,343.284L376.158,343.509L375.649,343.937L375.181,344.332L374.756,344.692L374.375,345.015L374.039,345.301L373.808,345.499L373.751,345.547L373.512,345.752L373.324,345.915L373.187,346.032L373.076,346.129L372.903,346.136L372.895,345.993L372.999,345.891L373.127,345.767L373.304,345.595L373.528,345.378L373.582,345.327L373.798,345.118L374.112,344.816L374.469,344.473L374.868,344.092L375.307,343.674L375.784,343.221L376.036,342.981L376.298,342.734L376.568,342.479L376.848,342.215L377.135,341.945L377.432,341.667L377.736,341.382L378.048,341.09L378.368,340.791L378.696,340.486L379.032,340.174L379.374,339.857L379.724,339.533L380.081,339.204L380.444,338.87L380.814,338.53L381.19,338.185L381.573,337.836L381.961,337.481L382.356,337.123L382.756,336.76L383.161,336.393L383.572,336.023L383.988,335.649L384.409,335.271L384.834,334.891L385.265,334.507L385.699,334.121L386.138,333.732L386.581,333.341L387.028,332.948L387.478,332.553L387.932,332.156L388.389,331.758L388.85,331.359L389.313,330.958L389.779,330.557L390.248,330.155L390.483,329.954L390.719,329.753L390.956,329.551L391.193,329.35L391.43,329.149L391.668,328.947L391.907,328.746L392.146,328.545L392.385,328.344L392.625,328.143L392.865,327.942L393.105,327.741L393.346,327.541L393.587,327.341L393.829,327.141L394.071,326.941L394.313,326.742L394.446,326.632L394.554,326.542L394.796,326.343L395.037,326.143L395.279,325.944L395.521,325.746L395.763,325.548L396.005,325.351L396.247,325.154L396.489,324.957L396.732,324.761L396.974,324.566L397.216,324.371L397.458,324.177L397.701,323.984L397.943,323.791L398.185,323.599L398.427,323.408L398.669,323.218L398.91,323.028L399.152,322.839L399.393,322.651L399.634,322.464L399.875,322.278L400.116,322.093L400.356,321.909L400.596,321.725L400.836,321.543L401.075,321.361L401.314,321.181L401.553,321.002L401.791,320.824L402.029,320.647L402.267,320.471L402.503,320.296L402.74,320.123L402.976,319.951L403.211,319.78L403.446,319.61L403.681,319.442L403.914,319.275L404.148,319.109L404.38,318.944L404.612,318.781L404.843,318.62L405.074,318.46L405.304,318.301L405.533,318.144L405.762,317.989L405.99,317.835L406.217,317.682L406.443,317.531L406.668,317.382L406.893,317.234L407.117,317.088L407.34,316.944L407.562,316.802L407.784,316.661L408.004,316.522L408.224,316.385L408.442,316.249L408.66,316.116L408.877,315.984L409.093,315.854L409.308,315.726L409.521,315.6L409.734,315.476L409.947,315.354L410.156,315.234L410.263,315.175L410.368,315.116L410.472,315.058L410.577,315L410.681,314.943L410.785,314.886L410.888,314.83L410.992,314.774L411.095,314.719L411.198,314.664L411.3,314.61L411.403,314.557L411.505,314.504L411.607,314.451L411.709,314.399L411.81,314.348L411.911,314.297L412.012,314.247L412.113,314.197L412.213,314.148L412.313,314.1L412.413,314.052L412.513,314.004L412.612,313.958L412.711,313.911L412.81,313.866L412.909,313.821L413.007,313.776L413.106,313.732L413.204,313.689L413.302,313.646L413.399,313.604L413.496,313.563L413.594,313.522L413.69,313.482L413.787,313.442L413.884,313.403L413.98,313.364L414.076,313.327L414.172,313.29L414.267,313.253L414.363,313.217L414.458,313.182L414.553,313.147L414.648,313.113L414.743,313.08L414.838,313.048L414.932,313.016L415.027,312.984L415.121,312.954L415.215,312.924L415.309,312.895L415.403,312.866L415.496,312.839L415.59,312.812L415.683,312.785L415.777,312.76L415.87,312.735L415.964,312.711L416.057,312.687L416.15,312.665L416.243,312.643L416.336,312.622L416.43,312.602L416.523,312.582L416.616,312.564L416.709,312.546L416.802,312.529L416.895,312.513L416.989,312.498L417.082,312.484L417.176,312.47L417.269,312.458L417.363,312.447L417.457,312.436L417.551,312.427L417.645,312.418L417.739,312.411L417.833,312.405L417.928,312.4L418.022,312.395L418.117,312.392L418.212,312.391L418.307,312.39L418.403,312.391L418.498,312.393L418.594,312.396L418.69,312.401L418.786,312.407L418.882,312.414L418.978,312.423L419.075,312.433L419.171,312.445L419.267,312.458L419.364,312.473L419.461,312.49L419.557,312.508L419.653,312.528L419.75,312.55L419.846,312.573L419.941,312.598L420.024,312.622L420.065,312.633L420.137,312.644L420.239,312.658L420.341,312.672L420.441,312.685L420.541,312.698L420.641,312.71L420.739,312.722L420.837,312.733L420.935,312.744L421.032,312.755L421.128,312.765L421.223,312.775L421.318,312.784L421.413,312.793L421.506,312.802L421.599,312.81L421.692,312.818L421.783,312.825L421.875,312.832L421.965,312.839L422.055,312.845L422.144,312.851L422.233,312.857L422.321,312.862L422.408,312.867L422.495,312.871L422.581,312.875L422.667,312.879L422.751,312.883L422.836,312.886L422.919,312.889L423.002,312.891L423.085,312.893L423.167,312.895L423.248,312.896L423.328,312.898L423.408,312.898L423.488,312.899L423.567,312.899L423.645,312.899L423.722,312.899L423.799,312.898L423.875,312.897L423.951,312.896L424.026,312.894L424.101,312.893L424.175,312.891L424.248,312.888L424.321,312.886L424.393,312.883L424.465,312.88L424.536,312.876L424.606,312.873L424.676,312.869L424.745,312.865L424.814,312.86L424.882,312.856L424.946,312.85L425.082,312.84L425.213,312.829L425.342,312.817L425.468,312.804L425.592,312.79L425.714,312.776L425.833,312.76L425.951,312.744L426.066,312.728L426.179,312.71L426.29,312.692L426.398,312.674L426.505,312.655L426.609,312.635L426.711,312.615L426.811,312.594L426.91,312.573L427.006,312.551L427.1,312.529L427.191,312.506L427.281,312.484L427.369,312.46L427.455,312.437L427.539,312.413L427.621,312.389L427.701,312.365L427.78,312.34L427.856,312.316L427.931,312.291L428.003,312.266L428.074,312.241L428.143,312.215L428.21,312.19L428.276,312.165L428.339,312.139L428.401,312.114L428.461,312.089L428.52,312.064L428.577,312.038L428.632,312.013L428.685,311.988L428.737,311.963L428.787,311.938L428.836,311.914L428.883,311.889L428.928,311.865L428.972,311.841L429.014,311.817L429.055,311.794L429.094,311.771L429.132,311.748L429.168,311.725L429.203,311.703L429.237,311.681L429.268,311.66L429.299,311.639L429.328,311.618L429.356,311.598L429.382,311.578L429.407,311.559L429.431,311.54L429.453,311.522L429.474,311.504L429.494,311.487L429.512,311.47L429.529,311.454L429.56,311.432L429.53,311.445L429.559,311.424L429.587,311.403L429.558,311.416L429.584,311.396L429.609,311.377L429.581,311.389L429.604,311.371L429.627,311.353L429.585,311.372L429.626,311.338L429.661,311.307L429.607,311.334L429.638,311.306L429.663,311.281L429.611,311.308L429.631,311.287L429.646,311.269L429.596,311.297L429.631,311.269L429.582,311.297L429.611,311.272L429.564,311.3L429.588,311.28L429.523,311.319L429.552,311.294L429.539,311.301L429.475,311.342L429.486,311.332L429.539,311.301L429.554,311.292L429.552,311.294L430.074,310.988L430.724,310.725L431.42,310.55L432.145,310.469L432.88,310.485L433.606,310.599L434.304,310.808L434.957,311.109L435.547,311.494L436.106,311.023L437.717,312.314L443.505,309.946L445.527,309.157L450.983,307.51L456.726,305.299L463.096,301.981L470.825,297.865L471.202,297.66L471.361,297.577L471.536,297.513L471.676,297.479L472.078,297.38L472.368,297.308L472.713,297.224L473.11,297.127L473.555,297.019L474.045,296.9L474.577,296.773L475.146,296.636L475.751,296.492L476.387,296.342L477.051,296.186L477.739,296.025L478.092,295.943L478.45,295.86L478.812,295.777L479.178,295.693L479.548,295.609L479.921,295.524L480.297,295.439L480.675,295.354L481.055,295.269L481.437,295.184L481.82,295.099L482.204,295.014L482.588,294.931L482.973,294.847L483.356,294.765L483.739,294.683L484.121,294.602L484.5,294.522L484.878,294.443L485.253,294.366L485.626,294.29L485.995,294.216L486.36,294.143L486.721,294.072L487.078,294.003L487.43,293.936L487.777,293.871L488.117,293.808L488.287,293.777L488.454,293.747L488.619,293.718L488.783,293.689L488.945,293.661L489.105,293.634L489.264,293.607L489.42,293.581L489.576,293.555L489.729,293.531L489.88,293.507L490.022,293.484L490.077,293.475L490.137,293.465L490.114,293.468L490.173,293.457L490.233,293.445L490.211,293.449L490.271,293.437L490.33,293.424L490.309,293.428L490.369,293.414L490.429,293.4L490.408,293.404L490.468,293.389L490.528,293.374L490.508,293.378L490.569,293.362L490.629,293.345L490.609,293.35L490.67,293.333L490.731,293.315L490.712,293.32L490.773,293.301L490.824,293.285L490.835,293.281L490.876,293.267L490.928,293.249L490.98,293.23L491.033,293.211L491.086,293.191L491.138,293.17L491.191,293.149L491.245,293.128L491.298,293.106L491.352,293.083L491.406,293.06L491.46,293.036L491.514,293.012L491.569,292.987L491.623,292.961L491.678,292.935L491.733,292.909L491.788,292.881L491.843,292.854L491.898,292.826L491.954,292.797L492.01,292.768L492.065,292.738L492.121,292.708L492.177,292.677L492.233,292.645L492.289,292.614L492.345,292.581L492.402,292.548L492.458,292.515L492.514,292.481L492.571,292.447L492.628,292.412L492.684,292.377L492.741,292.341L492.798,292.305L492.854,292.268L492.911,292.231L492.968,292.194L493.025,292.156L493.082,292.117L493.139,292.078L493.195,292.039L493.252,292L493.309,291.959L493.366,291.919L493.423,291.878L493.48,291.837L493.537,291.795L493.593,291.753L493.65,291.71L493.707,291.668L493.764,291.624L493.82,291.581L493.877,291.537L493.933,291.493L493.99,291.448L494.046,291.403L494.103,291.358L494.159,291.312L494.215,291.266L494.271,291.22L494.327,291.173L494.382,291.128L494.495,291.032L494.606,290.936L494.717,290.84L494.828,290.742L494.938,290.643L495.047,290.544L495.156,290.443L495.264,290.342L495.372,290.24L495.479,290.137L495.586,290.034L495.691,289.93L495.797,289.825L495.901,289.72L496.005,289.615L496.108,289.509L496.21,289.403L496.311,289.296L496.412,289.19L496.511,289.083L496.61,288.976L496.708,288.869L496.805,288.762L496.901,288.655L496.996,288.548L497.091,288.441L497.184,288.334L497.276,288.228L497.367,288.121L497.457,288.016L497.546,287.91L497.634,287.805L497.721,287.701L497.807,287.597L497.891,287.493L497.974,287.391L498.057,287.289L498.138,287.187L498.217,287.087L498.296,286.987L498.373,286.888L498.449,286.791L498.524,286.694L498.597,286.598L498.669,286.504L498.74,286.41L498.809,286.318L498.877,286.227L498.944,286.137L499.008,286.05L499.135,285.877L499.255,285.71L499.369,285.551L499.477,285.398L499.579,285.252L499.674,285.114L499.763,284.984L499.845,284.863L499.92,284.751L499.989,284.648L500.05,284.554L500.104,284.471L500.15,284.4L500.223,284.286L500.264,284.22L500.277,284.199L500.499,283.924L500.77,283.682L501.083,283.478L501.431,283.317L501.572,283.26L501.742,283.189L501.974,283.094L502.263,282.974L502.607,282.834L503.002,282.672L503.444,282.493L503.93,282.296L504.457,282.084L504.735,281.973L505.022,281.858L505.317,281.74L505.621,281.62L505.932,281.497L506.25,281.371L506.575,281.244L506.907,281.114L507.244,280.982L507.587,280.849L507.936,280.714L508.289,280.578L508.646,280.441L509.007,280.303L509.372,280.164L509.74,280.025L510.111,279.886L510.483,279.746L510.858,279.607L511.234,279.468L511.612,279.33L511.99,279.192L512.368,279.055L512.746,278.919L513.124,278.785L513.5,278.652L513.875,278.521L514.063,278.456L514.25,278.392L514.436,278.328L514.621,278.264L514.807,278.201L514.991,278.139L515.175,278.078L515.358,278.017L515.54,277.956L515.721,277.897L515.902,277.838L516.082,277.78L516.261,277.722L516.438,277.665L516.615,277.609L516.791,277.554L516.966,277.5L517.139,277.447L517.312,277.394L517.483,277.343L517.653,277.292L517.822,277.242L517.99,277.193L518.157,277.146L518.322,277.099L518.486,277.053L518.649,277.008L518.81,276.965L518.97,276.922L519.129,276.881L519.287,276.841L519.443,276.802L519.598,276.764L519.755,276.726L519.818,276.713L519.885,276.699L519.951,276.685L520.017,276.673L520.084,276.661L520.15,276.649L520.217,276.638L520.283,276.628L520.35,276.618L520.424,276.608L520.548,276.592L520.68,276.577L520.812,276.565L520.944,276.555L521.074,276.547L521.205,276.54L521.335,276.536L521.464,276.534L521.593,276.533L521.721,276.534L521.848,276.537L521.975,276.542L522.101,276.549L522.226,276.556L522.351,276.566L522.475,276.577L522.598,276.589L522.721,276.603L522.842,276.618L522.963,276.635L523.084,276.653L523.203,276.672L523.322,276.692L523.44,276.713L523.558,276.736L523.675,276.759L523.791,276.784L523.907,276.81L524.022,276.836L524.136,276.864L524.25,276.893L524.364,276.922L524.476,276.953L524.588,276.984L524.7,277.016L524.811,277.049L524.922,277.083L525.032,277.118L525.142,277.153L525.251,277.19L525.36,277.227L525.468,277.264L525.576,277.303L525.683,277.342L525.791,277.382L525.897,277.423L526.004,277.464L526.11,277.506L526.215,277.548L526.321,277.591L526.425,277.635L526.53,277.679L526.634,277.724L526.738,277.77L526.842,277.816L526.945,277.862L527.049,277.909L527.151,277.957L527.254,278.005L527.356,278.054L527.458,278.103L527.56,278.153L527.661,278.203L527.763,278.254L527.864,278.305L527.964,278.357L528.065,278.409L528.165,278.462L528.265,278.515L528.365,278.568L528.464,278.622L528.564,278.676L528.663,278.731L528.762,278.786L528.86,278.842L528.959,278.898L529.057,278.954L529.155,279.011L529.252,279.068L529.35,279.125L529.447,279.183L529.544,279.241L529.641,279.299L529.738,279.358L529.834,279.417L529.93,279.476L530.026,279.536L530.122,279.596L530.217,279.656L530.313,279.716L530.408,279.777L530.502,279.838L530.597,279.899L530.691,279.961L530.787,280.024L530.973,280.147L531.159,280.272L531.344,280.398L531.529,280.524L531.712,280.652L531.894,280.78L532.075,280.908L532.255,281.037L532.434,281.167L532.612,281.296L532.788,281.427L532.963,281.557L533.137,281.687L533.31,281.818L533.481,281.949L533.651,282.08L533.82,282.211L533.987,282.341L534.152,282.472L534.316,282.602L534.479,282.732L534.639,282.861L534.799,282.99L534.956,283.119L535.112,283.247L535.266,283.374L535.419,283.501L535.569,283.627L535.718,283.752L535.864,283.877L536.009,284L536.152,284.122L536.293,284.243L536.431,284.364L536.568,284.482L536.703,284.6L536.808,284.693L536.835,284.716L536.965,284.831L537.092,284.945L537.218,285.057L537.341,285.167L537.461,285.276L537.579,285.383L537.696,285.49L537.918,285.693L538.131,285.89L538.334,286.079L538.525,286.258L538.705,286.428L538.872,286.588L539.028,286.738L539.171,286.876L539.297,286.998L549.898,293.299L550.46,293.696L550.936,294.166L551.313,294.699L551.58,295.278L551.676,295.55L551.792,295.868Z"/>
            </g>
        </g>
    </g>
    <g id="Layer5" transform="matrix(1,0,0,1,-32.9341,221.12)">
        <g transform="matrix(0.996661,0,0,0.796296,0.132405,8.19526)">
            <g transform="matrix(1.00335,0,0,1.25581,-0.132849,-10.2917)">
                <path d="M86.311,45.442L72.179,45.442L72.179,83.731L68.695,83.731L68.695,45.442L54.592,45.442L54.592,42.497L86.311,42.497L86.311,45.442Z" style="fill-rule:nonzero;"/>
            </g>
            <g transform="matrix(1.00335,0,0,1.25581,-0.132849,-10.2917)">
                <path d="M123.524,83.731L120.012,83.731L120.012,63.964L96.449,63.964L96.449,83.731L92.966,83.731L92.966,42.497L96.449,42.497L96.449,61.018L120.012,61.018L120.012,42.497L123.524,42.497L123.524,83.731Z" style="fill-rule:nonzero;"/>
            </g>
            <g transform="matrix(1.00335,0,0,1.25581,-0.132849,-10.2917)">
                <path d="M156.772,63.964L137.486,63.964L137.486,80.786L159.66,80.786L159.66,83.731L134.002,83.731L134.002,42.497L159.519,42.497L159.519,45.442L137.486,45.442L137.486,61.018L156.772,61.018L156.772,63.964Z" style="fill-rule:nonzero;"/>
            </g>
            <g transform="matrix(1.00335,0,0,1.25581,-0.132849,-10.2917)">
                <path d="M184.582,66.937L184.582,83.731L181.099,83.731L181.099,42.497L195.146,42.497C199.431,42.497 202.816,43.592 205.298,45.782C207.781,47.972 209.023,50.984 209.023,54.816C209.023,58.687 207.828,61.674 205.44,63.78C203.052,65.885 199.592,66.937 195.061,66.937L184.582,66.937ZM184.582,63.992L195.146,63.992C198.525,63.992 201.102,63.188 202.877,61.581C204.652,59.974 205.539,57.733 205.539,54.859C205.539,52.004 204.657,49.73 202.891,48.037C201.126,46.345 198.62,45.48 195.372,45.442L184.582,45.442L184.582,63.992Z" style="fill-rule:nonzero;"/>
            </g>
            <g transform="matrix(1.00335,0,0,1.25581,-0.132849,-10.2917)">
                <path d="M235.162,72.148L216.443,72.148L212.194,83.731L208.541,83.731L224.146,42.497L227.459,42.497L243.064,83.731L239.439,83.731L235.162,72.148ZM217.519,69.203L234.058,69.203L225.788,46.745L217.519,69.203Z" style="fill-rule:nonzero;"/>
            </g>
            <g transform="matrix(1.00335,0,0,1.25581,-0.132849,-10.2917)">
                <path d="M278.011,70.874C277.539,75.216 275.986,78.539 273.352,80.843C270.718,83.146 267.211,84.298 262.831,84.298C259.773,84.298 257.068,83.533 254.717,82.004C252.367,80.474 250.55,78.308 249.266,75.504C247.982,72.7 247.331,69.496 247.312,65.889L247.312,60.537C247.312,56.874 247.954,53.627 249.237,50.795C250.521,47.963 252.367,45.777 254.774,44.239C257.181,42.7 259.952,41.93 263.086,41.93C267.504,41.93 270.992,43.12 273.55,45.499C276.109,47.878 277.596,51.172 278.011,55.383L274.499,55.383C273.631,48.378 269.826,44.876 263.086,44.876C259.348,44.876 256.369,46.274 254.151,49.071C251.933,51.867 250.823,55.731 250.823,60.663L250.823,65.708C250.823,70.469 251.904,74.267 254.066,77.101C256.228,79.935 259.15,81.352 262.831,81.352C266.475,81.352 269.222,80.479 271.072,78.733C272.923,76.986 274.065,74.367 274.499,70.874L278.011,70.874Z" style="fill-rule:nonzero;"/>
            </g>
            <g transform="matrix(1.00335,0,0,1.25581,-0.132849,-10.2917)">
                <rect x="287.243" y="42.497" width="3.483" height="41.234" style="fill-rule:nonzero;"/>
            </g>
            <g transform="matrix(1.00335,0,0,1.25581,-0.132849,-10.2917)">
                <path d="M324.626,64.445L305.397,64.445L305.397,83.731L301.913,83.731L301.913,42.497L327.458,42.497L327.458,45.442L305.397,45.442L305.397,61.5L324.626,61.5L324.626,64.445Z" style="fill-rule:nonzero;"/>
            </g>
            <g transform="matrix(1.00335,0,0,1.25581,-0.132849,-10.2917)">
                <rect x="335.303" y="42.497" width="3.483" height="41.234" style="fill-rule:nonzero;"/>
            </g>
            <g transform="matrix(1.00335,0,0,1.25581,-0.132849,-10.2917)">
                <path d="M379.171,70.874C378.699,75.216 377.146,78.539 374.512,80.843C371.879,83.146 368.372,84.298 363.991,84.298C360.933,84.298 358.228,83.533 355.878,82.004C353.527,80.474 351.71,78.308 350.426,75.504C349.142,72.7 348.491,69.496 348.472,65.889L348.472,60.537C348.472,56.874 349.114,53.627 350.398,50.795C351.681,47.963 353.527,45.777 355.934,44.239C358.341,42.7 361.112,41.93 364.246,41.93C368.664,41.93 372.152,43.12 374.711,45.499C377.269,47.878 378.756,51.172 379.171,55.383L375.659,55.383C374.791,48.378 370.986,44.876 364.246,44.876C360.508,44.876 357.53,46.274 355.311,49.071C353.093,51.867 351.984,55.731 351.984,60.663L351.984,65.708C351.984,70.469 353.064,74.267 355.226,77.101C357.388,79.935 360.31,81.352 363.991,81.352C367.635,81.352 370.382,80.479 372.233,78.733C374.083,76.986 375.225,74.367 375.659,70.874L379.171,70.874Z" style="fill-rule:nonzero;"/>
            </g>
            <g transform="matrix(1.00335,0,0,1.25581,-0.132849,-10.2917)">
                <path d="M432.442,83.731L428.958,83.731L405.254,48.444L405.254,83.731L401.742,83.731L401.742,42.497L405.254,42.497L428.986,77.812L428.986,42.497L432.442,42.497L432.442,83.731Z" style="fill-rule:nonzero;"/>
            </g>
            <g transform="matrix(1.00335,0,0,1.25581,-0.132849,-10.2917)">
                <path d="M473.393,65.351C473.393,69.146 472.737,72.479 471.424,75.348C470.112,78.218 468.238,80.427 465.803,81.975C463.367,83.524 460.554,84.298 457.363,84.298C452.549,84.298 448.66,82.575 445.695,79.129C442.731,75.684 441.249,71.034 441.249,65.181L441.249,60.933C441.249,57.176 441.915,53.849 443.246,50.95C444.577,48.052 446.46,45.825 448.896,44.267C451.331,42.709 454.135,41.93 457.307,41.93C460.479,41.93 463.278,42.695 465.704,44.224C468.13,45.754 470.004,47.916 471.325,50.71C472.647,53.504 473.336,56.742 473.393,60.424L473.393,65.351ZM469.909,60.877C469.909,55.911 468.786,52.022 466.539,49.209C464.292,46.396 461.215,44.989 457.307,44.989C453.474,44.989 450.42,46.4 448.145,49.223C445.87,52.046 444.733,55.987 444.733,61.047L444.733,65.351C444.733,70.241 445.865,74.117 448.131,76.977C450.397,79.837 453.474,81.267 457.363,81.267C461.309,81.267 464.387,79.856 466.596,77.034C468.805,74.211 469.909,70.279 469.909,65.238L469.909,60.877Z" style="fill-rule:nonzero;"/>
            </g>
            <g transform="matrix(1.00335,0,0,1.25581,-0.132849,-10.2917)">
                <path d="M497.578,66.541L485.599,66.541L485.599,83.731L482.087,83.731L482.087,42.497L495.483,42.497C499.882,42.497 503.318,43.562 505.791,45.693C508.264,47.824 509.501,50.804 509.501,54.632C509.501,57.272 508.727,59.601 507.179,61.619C505.631,63.637 503.554,65.032 500.948,65.805L511.257,83.363L511.257,83.731L507.547,83.731L497.578,66.541ZM485.599,63.596L496.276,63.596C499.202,63.596 501.553,62.763 503.327,61.099C505.102,59.435 505.989,57.279 505.989,54.632C505.989,51.72 505.064,49.461 503.214,47.853C501.364,46.246 498.768,45.442 495.426,45.442L485.599,45.442L485.599,63.596Z" style="fill-rule:nonzero;"/>
            </g>
            <g transform="matrix(1.00335,0,0,1.25581,-0.132849,-10.2917)">
                <path d="M544.703,45.442L530.571,45.442L530.571,83.731L527.088,83.731L527.088,45.442L512.985,45.442L512.985,42.497L544.703,42.497L544.703,45.442Z" style="fill-rule:nonzero;"/>
            </g>
            <g transform="matrix(1.00335,0,0,1.25581,-0.132849,-10.2917)">
                <path d="M581.916,83.731L578.404,83.731L578.404,63.964L554.842,63.964L554.842,83.731L551.359,83.731L551.359,42.497L554.842,42.497L554.842,61.018L578.404,61.018L578.404,42.497L581.916,42.497L581.916,83.731Z" style="fill-rule:nonzero;"/>
            </g>
            <g transform="matrix(1.00335,0,0,1.25581,-0.132849,-10.2917)">
                <path d="M600.013,72.601L601.287,79.002L602.845,72.885L611.794,42.497L614.938,42.497L623.774,72.885L625.303,79.058L626.662,72.601L634.111,42.497L637.679,42.497L627.115,83.731L623.774,83.731L614.428,51.474L613.38,47.396L612.361,51.474L602.788,83.731L599.446,83.731L588.911,42.497L592.48,42.497L600.013,72.601Z" style="fill-rule:nonzero;"/>
            </g>
            <g transform="matrix(1.00335,0,0,1.25581,-0.132849,-10.2917)">
                <path d="M667.16,63.964L647.874,63.964L647.874,80.786L670.049,80.786L670.049,83.731L644.391,83.731L644.391,42.497L669.907,42.497L669.907,45.442L647.874,45.442L647.874,61.018L667.16,61.018L667.16,63.964Z" style="fill-rule:nonzero;"/>
            </g>
            <g transform="matrix(1.00335,0,0,1.25581,-0.132849,-10.2917)">
                <path d="M700.72,73.593C700.72,71.308 699.917,69.5 698.313,68.169C696.708,66.838 693.772,65.573 689.505,64.374C685.238,63.175 682.123,61.868 680.159,60.452C677.365,58.451 675.968,55.826 675.968,52.579C675.968,49.426 677.266,46.863 679.862,44.89C682.458,42.917 685.776,41.93 689.817,41.93C692.554,41.93 695.004,42.459 697.166,43.516C699.327,44.574 701.003,46.046 702.193,47.934C703.382,49.822 703.977,51.928 703.977,54.25L700.465,54.25C700.465,51.428 699.502,49.16 697.576,47.447C695.651,45.733 693.064,44.876 689.817,44.876C686.664,44.876 684.152,45.58 682.283,46.989C680.414,48.398 679.48,50.237 679.48,52.506C679.48,54.605 680.32,56.317 682,57.64C683.68,58.964 686.371,60.132 690.071,61.143C693.772,62.155 696.576,63.204 698.483,64.289C700.389,65.375 701.824,66.673 702.787,68.183C703.75,69.694 704.232,71.478 704.232,73.536C704.232,76.783 702.934,79.389 700.338,81.352C697.742,83.316 694.319,84.298 690.071,84.298C687.164,84.298 684.497,83.778 682.071,82.74C679.645,81.702 677.804,80.248 676.548,78.379C675.293,76.51 674.665,74.367 674.665,71.95L678.149,71.95C678.149,74.858 679.234,77.152 681.405,78.832C683.577,80.512 686.465,81.352 690.071,81.352C693.281,81.352 695.858,80.644 697.803,79.228C699.748,77.812 700.72,75.934 700.72,73.593Z" style="fill-rule:nonzero;"/>
            </g>
            <g transform="matrix(1.00335,0,0,1.25581,-0.132849,-10.2917)">
                <path d="M739.717,45.442L725.585,45.442L725.585,83.731L722.102,83.731L722.102,45.442L707.998,45.442L707.998,42.497L739.717,42.497L739.717,45.442Z" style="fill-rule:nonzero;"/>
            </g>
        </g>
        <g transform="matrix(1.12654,0,0,1.11864,-51.7539,-8.22392)">
            <g transform="matrix(0.887676,0,0,0.893939,6.60659,11.634)">
                <path d="M111.407,170.255L135.595,170.255L135.595,181.692L97.626,181.692L97.626,113.442L111.407,113.442L111.407,170.255Z" style="fill-rule:nonzero;"/>
            </g>
            <g transform="matrix(0.887676,0,0,0.893939,6.60659,11.634)">
                <path d="M167.001,181.692C166.626,180.911 166.251,179.599 165.876,177.755C163.501,181.005 160.282,182.63 156.22,182.63C151.97,182.63 148.446,181.224 145.649,178.411C142.852,175.599 141.454,171.958 141.454,167.489C141.454,162.177 143.149,158.067 146.54,155.161C149.931,152.255 154.813,150.77 161.188,150.708L165.22,150.708L165.22,146.63C165.22,144.349 164.829,142.739 164.048,141.802C163.266,140.864 162.126,140.395 160.626,140.395C157.313,140.395 155.657,142.333 155.657,146.208L142.391,146.208C142.391,141.52 144.149,137.653 147.665,134.606C151.181,131.56 155.626,130.036 161.001,130.036C166.563,130.036 170.868,131.481 173.915,134.372C176.962,137.263 178.485,141.395 178.485,146.77L178.485,170.63C178.548,175.005 179.173,178.427 180.36,180.895L180.36,181.692L167.001,181.692ZM159.173,172.224C160.641,172.224 161.891,171.927 162.923,171.333C163.954,170.739 164.72,170.036 165.22,169.224L165.22,158.677L162.032,158.677C159.782,158.677 158.009,159.395 156.712,160.833C155.415,162.27 154.766,164.192 154.766,166.599C154.766,170.349 156.235,172.224 159.173,172.224Z" style="fill-rule:nonzero;"/>
            </g>
            <g transform="matrix(0.887676,0,0,0.893939,6.60659,11.634)">
                <path d="M227.657,157.974C227.657,166.192 226.345,172.356 223.72,176.466C221.095,180.575 216.97,182.63 211.345,182.63C206.938,182.63 203.407,180.645 200.751,176.677L200.329,181.692L188.095,181.692L188.095,109.692L201.36,109.692L201.36,135.099C203.86,131.724 207.157,130.036 211.251,130.036C216.876,130.036 221.001,132.075 223.626,136.153C226.251,140.231 227.595,146.208 227.657,154.083L227.657,157.974ZM214.391,154.687C214.391,149.327 213.876,145.73 212.845,143.896C211.813,142.062 210.016,141.145 207.454,141.145C204.673,141.145 202.641,142.415 201.36,144.954L201.36,168.134C202.548,170.517 204.61,171.708 207.548,171.708C210.079,171.708 211.837,170.877 212.821,169.216C213.806,167.555 214.329,164.326 214.391,159.53L214.391,154.687Z" style="fill-rule:nonzero;"/>
            </g>
            <g transform="matrix(0.887676,0,0,0.893939,6.60659,11.634)">
                <path d="M234.079,154.692C234.079,147.005 235.891,140.974 239.516,136.599C243.141,132.224 248.157,130.036 254.563,130.036C261.032,130.036 266.079,132.224 269.704,136.599C273.329,140.974 275.141,147.036 275.141,154.786L275.141,158.02C275.141,165.739 273.345,171.77 269.751,176.114C266.157,180.458 261.126,182.63 254.657,182.63C248.157,182.63 243.102,180.45 239.493,176.091C235.884,171.731 234.079,165.677 234.079,157.927L234.079,154.692ZM247.391,158.031C247.391,167.149 249.813,171.708 254.657,171.708C259.126,171.708 261.532,167.904 261.876,160.295L261.923,154.682C261.923,150.029 261.282,146.578 260.001,144.33C258.72,142.082 256.907,140.958 254.563,140.958C252.313,140.958 250.556,142.082 249.29,144.33C248.024,146.578 247.391,150.029 247.391,154.682L247.391,158.031Z" style="fill-rule:nonzero;"/>
            </g>
            <g transform="matrix(0.887676,0,0,0.893939,6.60659,11.634)">
                <path d="M308.423,143.77L304.016,143.395C300.391,143.395 297.938,144.989 296.657,148.177L296.657,181.692L283.345,181.692L283.345,130.974L295.86,130.974L296.235,136.458C298.329,132.177 301.22,130.036 304.907,130.036C306.407,130.036 307.626,130.239 308.563,130.645L308.423,143.77Z" style="fill-rule:nonzero;"/>
            </g>
            <g transform="matrix(0.887676,0,0,0.893939,6.60659,11.634)">
                <path d="M406.391,158.958C406.048,166.739 403.86,172.63 399.829,176.63C395.798,180.63 390.11,182.63 382.766,182.63C375.048,182.63 369.134,180.091 365.024,175.013C360.915,169.935 358.86,162.692 358.86,153.286L358.86,141.802C358.86,132.427 360.985,125.2 365.235,120.122C369.485,115.044 375.391,112.505 382.954,112.505C390.391,112.505 396.04,114.583 399.899,118.739C403.759,122.895 405.954,128.864 406.485,136.645L392.657,136.645C392.532,131.833 391.79,128.513 390.431,126.685C389.071,124.856 386.579,123.942 382.954,123.942C379.266,123.942 376.657,125.231 375.126,127.81C373.595,130.388 372.782,134.63 372.688,140.536L372.688,153.427C372.688,160.208 373.446,164.864 374.962,167.395C376.477,169.927 379.079,171.192 382.766,171.192C386.391,171.192 388.891,170.31 390.266,168.544C391.641,166.778 392.423,163.583 392.61,158.958L406.391,158.958Z" style="fill-rule:nonzero;"/>
            </g>
            <g transform="matrix(0.887676,0,0,0.893939,6.60659,11.634)">
                <path d="M428.141,181.692L414.829,181.692L414.829,130.974L428.141,130.974L428.141,181.692ZM414.22,117.849C414.22,115.786 414.876,114.099 416.188,112.786C417.501,111.474 419.251,110.817 421.438,110.817C423.626,110.817 425.376,111.474 426.688,112.786C428.001,114.099 428.657,115.786 428.657,117.849C428.657,119.88 428.009,121.567 426.712,122.911C425.415,124.255 423.657,124.927 421.438,124.927C419.22,124.927 417.462,124.255 416.165,122.911C414.868,121.567 414.22,119.88 414.22,117.849Z" style="fill-rule:nonzero;"/>
            </g>
            <g transform="matrix(0.887676,0,0,0.893939,6.60659,11.634)">
                <path d="M455.048,162.942L461.47,130.974L475.298,130.974L461.376,181.692L448.72,181.692L434.751,130.974L448.626,130.974L455.048,162.942Z" style="fill-rule:nonzero;"/>
            </g>
            <g transform="matrix(0.887676,0,0,0.893939,6.60659,11.634)">
                <path d="M495.454,181.692L482.141,181.692L482.141,130.974L495.454,130.974L495.454,181.692ZM481.532,117.849C481.532,115.786 482.188,114.099 483.501,112.786C484.813,111.474 486.563,110.817 488.751,110.817C490.938,110.817 492.688,111.474 494.001,112.786C495.313,114.099 495.97,115.786 495.97,117.849C495.97,119.88 495.321,121.567 494.024,122.911C492.727,124.255 490.97,124.927 488.751,124.927C486.532,124.927 484.774,124.255 483.477,122.911C482.181,121.567 481.532,119.88 481.532,117.849Z" style="fill-rule:nonzero;"/>
            </g>
            <g transform="matrix(0.887676,0,0,0.893939,6.60659,11.634)">
                <rect x="506.329" y="109.692" width="13.313" height="72" style="fill-rule:nonzero;"/>
            </g>
            <g transform="matrix(0.887676,0,0,0.893939,6.60659,11.634)">
                <path d="M573.36,156.755L566.516,156.755L566.516,181.692L552.735,181.692L552.735,113.442L574.72,113.442C581.626,113.442 586.962,115.231 590.727,118.81C594.493,122.388 596.376,127.474 596.376,134.067C596.376,143.13 593.079,149.474 586.485,153.099L598.438,181.036L598.438,181.692L583.626,181.692L573.36,156.755ZM566.516,145.27L574.345,145.27C577.095,145.27 579.157,144.356 580.532,142.528C581.907,140.7 582.595,138.255 582.595,135.192C582.595,128.349 579.923,124.927 574.579,124.927L566.516,124.927L566.516,145.27Z" style="fill-rule:nonzero;"/>
            </g>
            <g transform="matrix(0.887676,0,0,0.893939,6.60659,11.634)">
                <path d="M619.11,181.692L605.798,181.692L605.798,130.974L619.11,130.974L619.11,181.692ZM605.188,117.849C605.188,115.786 605.845,114.099 607.157,112.786C608.47,111.474 610.22,110.817 612.407,110.817C614.595,110.817 616.345,111.474 617.657,112.786C618.97,114.099 619.626,115.786 619.626,117.849C619.626,119.88 618.977,121.567 617.681,122.911C616.384,124.255 614.626,124.927 612.407,124.927C610.188,124.927 608.431,124.255 607.134,122.911C605.837,121.567 605.188,119.88 605.188,117.849Z" style="fill-rule:nonzero;"/>
            </g>
            <g transform="matrix(0.887676,0,0,0.893939,6.60659,11.634)">
                <path d="M627.782,154.786C627.782,146.474 629.282,140.27 632.282,136.177C635.282,132.083 639.485,130.036 644.891,130.036C649.485,130.036 653.032,131.849 655.532,135.474L656.048,130.974L668.001,130.974L668.001,181.692C668.001,188.161 666.188,193.106 662.563,196.528C658.938,199.95 653.735,201.661 646.954,201.661C644.173,201.661 641.251,201.106 638.188,199.997C635.126,198.888 632.845,197.474 631.345,195.755L635.798,186.567C637.048,187.88 638.673,188.95 640.673,189.778C642.673,190.606 644.563,191.02 646.345,191.02C649.313,191.02 651.446,190.31 652.743,188.888C654.04,187.466 654.704,185.177 654.735,182.02L654.735,177.661C652.204,180.974 648.907,182.63 644.845,182.63C639.438,182.63 635.259,180.528 632.306,176.325C629.352,172.122 627.845,166.192 627.782,158.536L627.782,154.786ZM641.048,158.114C641.048,162.802 641.657,166.216 642.876,168.356C644.095,170.497 646.032,171.567 648.688,171.567C651.407,171.567 653.423,170.583 654.735,168.614L654.735,144.38C653.36,142.224 651.376,141.145 648.782,141.145C646.157,141.145 644.212,142.224 642.946,144.38C641.681,146.536 641.048,150.005 641.048,154.786L641.048,158.114Z" style="fill-rule:nonzero;"/>
            </g>
            <g transform="matrix(0.887676,0,0,0.893939,6.60659,11.634)">
                <path d="M690.595,135.427C693.47,131.833 697.001,130.036 701.188,130.036C705.813,130.036 709.329,131.661 711.735,134.911C714.141,138.161 715.36,143.005 715.391,149.442L715.391,181.692L702.079,181.692L702.079,149.583C702.079,146.614 701.618,144.466 700.696,143.138C699.774,141.81 698.282,141.145 696.22,141.145C693.813,141.145 691.938,142.255 690.595,144.474L690.595,181.692L677.329,181.692L677.329,109.692L690.595,109.692L690.595,135.427Z" style="fill-rule:nonzero;"/>
            </g>
            <g transform="matrix(0.887676,0,0,0.893939,6.60659,11.634)">
                <path d="M740.329,118.505L740.329,130.974L747.126,130.974L747.126,140.911L740.329,140.911L740.329,166.122C740.329,168.125 740.602,169.502 741.149,170.253C741.696,171.004 742.751,171.38 744.313,171.38C745.595,171.38 746.641,171.27 747.454,171.052L747.36,181.364C745.11,182.208 742.673,182.63 740.048,182.63C731.485,182.63 727.157,177.718 727.063,167.894L727.063,140.911L721.204,140.911L721.204,130.974L727.063,130.974L727.063,118.505L740.329,118.505Z" style="fill-rule:nonzero;"/>
            </g>
            <g transform="matrix(0.887676,0,0,0.893939,6.60659,11.634)">
                <path d="M776.845,168.099C776.845,166.974 776.306,165.935 775.227,164.981C774.149,164.028 771.751,162.739 768.032,161.114C762.563,158.895 758.806,156.599 756.759,154.224C754.712,151.849 753.688,148.895 753.688,145.364C753.688,140.927 755.29,137.263 758.493,134.372C761.696,131.481 765.938,130.036 771.22,130.036C776.782,130.036 781.235,131.474 784.579,134.349C787.923,137.224 789.595,141.083 789.595,145.927L776.329,145.927C776.329,141.802 774.61,139.739 771.173,139.739C769.766,139.739 768.61,140.177 767.704,141.052C766.798,141.927 766.345,143.145 766.345,144.708C766.345,145.833 766.845,146.825 767.845,147.685C768.845,148.544 771.204,149.77 774.923,151.364C780.329,153.364 784.149,155.591 786.384,158.044C788.618,160.497 789.735,163.677 789.735,167.583C789.735,172.114 788.032,175.755 784.626,178.505C781.22,181.255 776.751,182.63 771.22,182.63C767.501,182.63 764.22,181.903 761.376,180.45C758.532,178.997 756.306,176.974 754.696,174.38C753.087,171.786 752.282,168.989 752.282,165.989L764.891,165.989C764.954,168.302 765.493,170.036 766.509,171.192C767.524,172.349 769.188,172.927 771.501,172.927C775.063,172.927 776.845,171.317 776.845,168.099Z" style="fill-rule:nonzero;"/>
            </g>
        </g>
        <g transform="matrix(1.58564,0,0,0.643678,-228.939,78.8438)">
            <g transform="matrix(0.630662,0,0,1.55357,134.75,-111.918)">
                <path d="M380.331,226.595L380.331,238.174L372.104,238.174L372.104,204.049L385.721,204.049C388.331,204.049 390.639,204.529 392.647,205.49C394.655,206.451 396.21,207.818 397.311,209.592C398.413,211.365 398.963,213.377 398.963,215.627C398.963,218.955 397.772,221.615 395.389,223.607C393.006,225.599 389.737,226.595 385.581,226.595L380.331,226.595ZM380.331,220.244L385.721,220.244C387.315,220.244 388.53,219.845 389.366,219.049C390.202,218.252 390.62,217.127 390.62,215.674C390.62,214.08 390.19,212.806 389.331,211.853C388.471,210.9 387.299,210.416 385.815,210.4L380.331,210.4L380.331,220.244Z" style="fill-rule:nonzero;"/>
            </g>
            <g transform="matrix(0.630662,0,0,1.55357,134.75,-111.918)">
                <path d="M416.026,226.103L411.573,226.103L411.573,238.174L403.346,238.174L403.346,204.049L416.776,204.049C420.823,204.049 423.987,204.946 426.268,206.741C428.549,208.536 429.69,211.072 429.69,214.35C429.69,216.723 429.21,218.689 428.249,220.25C427.288,221.811 425.784,223.075 423.737,224.043L430.862,237.822L430.862,238.174L422.049,238.174L416.026,226.103ZM411.573,219.775L416.776,219.775C418.338,219.775 419.514,219.364 420.303,218.542C421.092,217.719 421.487,216.572 421.487,215.099C421.487,213.627 421.088,212.472 420.292,211.634C419.495,210.796 418.323,210.377 416.776,210.377L411.573,210.377L411.573,219.775Z" style="fill-rule:nonzero;"/>
            </g>
            <g transform="matrix(0.630662,0,0,1.55357,134.75,-111.918)">
                <path d="M463.557,221.814C463.557,225.142 462.94,228.088 461.706,230.65C460.471,233.213 458.717,235.185 456.444,236.568C454.17,237.951 451.581,238.642 448.674,238.642C445.768,238.642 443.19,237.974 440.94,236.638C438.69,235.303 436.936,233.392 435.678,230.908C434.42,228.424 433.76,225.572 433.698,222.353L433.698,220.431C433.698,217.088 434.311,214.138 435.538,211.584C436.764,209.029 438.522,207.056 440.811,205.666C443.1,204.275 445.706,203.58 448.628,203.58C451.518,203.58 454.096,204.267 456.362,205.642C458.628,207.017 460.389,208.974 461.647,211.513C462.905,214.053 463.542,216.963 463.557,220.244L463.557,221.814ZM455.19,220.385C455.19,216.994 454.624,214.42 453.491,212.662C452.358,210.904 450.737,210.025 448.628,210.025C444.503,210.025 442.323,213.119 442.088,219.306L442.065,221.814C442.065,225.158 442.62,227.728 443.729,229.525C444.838,231.322 446.487,232.22 448.674,232.22C450.753,232.22 452.354,231.338 453.479,229.572C454.604,227.806 455.174,225.267 455.19,221.955L455.19,220.385Z" style="fill-rule:nonzero;"/>
            </g>
            <g transform="matrix(0.630662,0,0,1.55357,134.75,-111.918)">
                <path d="M481.393,204.049L489.596,204.049L489.596,227.463C489.596,229.635 489.092,231.572 488.085,233.275C487.077,234.978 485.67,236.299 483.866,237.236C482.061,238.174 480.049,238.642 477.831,238.642C474.112,238.642 471.221,237.705 469.159,235.83C467.096,233.955 466.065,231.299 466.065,227.861L474.315,227.861C474.315,229.424 474.585,230.556 475.124,231.26C475.663,231.963 476.565,232.314 477.831,232.314C478.971,232.314 479.85,231.888 480.467,231.037C481.085,230.185 481.393,228.994 481.393,227.463L481.393,204.049Z" style="fill-rule:nonzero;"/>
            </g>
            <g transform="matrix(0.630662,0,0,1.55357,134.75,-111.918)">
                <path d="M515.94,223.689L503.003,223.689L503.003,231.845L518.284,231.845L518.284,238.174L494.776,238.174L494.776,204.049L518.331,204.049L518.331,210.4L503.003,210.4L503.003,217.595L515.94,217.595L515.94,223.689Z" style="fill-rule:nonzero;"/>
            </g>
            <g transform="matrix(0.630662,0,0,1.55357,134.75,-111.918)">
                <path d="M549.245,226.619C549.135,228.994 548.495,231.092 547.323,232.912C546.151,234.732 544.506,236.142 542.389,237.142C540.272,238.142 537.854,238.642 535.135,238.642C530.651,238.642 527.12,237.181 524.542,234.26C521.963,231.338 520.674,227.213 520.674,221.885L520.674,220.197C520.674,216.853 521.256,213.928 522.42,211.42C523.585,208.912 525.26,206.974 527.448,205.607C529.635,204.24 532.167,203.556 535.042,203.556C539.182,203.556 542.51,204.646 545.026,206.826C547.542,209.006 548.971,212.01 549.315,215.838L541.112,215.838C541.049,213.76 540.526,212.267 539.542,211.361C538.557,210.455 537.057,210.002 535.042,210.002C532.995,210.002 531.495,210.767 530.542,212.299C529.588,213.83 529.088,216.275 529.042,219.635L529.042,222.049C529.042,225.689 529.499,228.291 530.413,229.853C531.327,231.416 532.901,232.197 535.135,232.197C537.026,232.197 538.471,231.752 539.471,230.861C540.471,229.97 541.003,228.556 541.065,226.619L549.245,226.619Z" style="fill-rule:nonzero;"/>
            </g>
            <g transform="matrix(0.630662,0,0,1.55357,134.75,-111.918)">
                <path d="M579.245,210.4L569.003,210.4L569.003,238.174L560.776,238.174L560.776,210.4L550.721,210.4L550.721,204.049L579.245,204.049L579.245,210.4Z" style="fill-rule:nonzero;"/>
            </g>
        </g>
        <g transform="matrix(2.66751e-17,-0.435638,0.435638,2.66751e-17,172.764,234.225)">
            <g transform="matrix(2.29549,0,0,2.29549,-111.881,-308.113)">
                <path d="M111.255,254.755L102.319,254.755L100.313,260.336L97.412,260.336L105.557,239.008L108.018,239.008L116.177,260.336L113.291,260.336L111.255,254.755ZM103.169,252.455L110.42,252.455L106.787,242.48L103.169,252.455Z" style="fill-rule:nonzero;"/>
            </g>
            <g transform="matrix(2.29549,0,0,2.29549,-111.881,-308.113)">
                <path d="M135.44,260.336L132.612,260.336L121.875,243.9L121.875,260.336L119.048,260.336L119.048,239.008L121.875,239.008L132.642,255.517L132.642,239.008L135.44,239.008L135.44,260.336Z" style="fill-rule:nonzero;"/>
            </g>
            <g transform="matrix(2.29549,0,0,2.29549,-111.881,-308.113)">
                <path d="M140.435,260.336L140.435,239.008L146.455,239.008C148.311,239.008 149.951,239.418 151.377,240.238C152.803,241.059 153.904,242.226 154.68,243.739C155.457,245.253 155.85,246.991 155.86,248.954L155.86,250.316C155.86,252.328 155.471,254.091 154.695,255.605C153.919,257.118 152.81,258.28 151.37,259.091C149.929,259.901 148.252,260.316 146.338,260.336L140.435,260.336ZM143.247,241.308L143.247,258.036L146.206,258.036C148.374,258.036 150.061,257.362 151.267,256.013C152.473,254.664 153.076,252.744 153.076,250.251L153.076,249.005C153.076,246.581 152.507,244.697 151.37,243.353C150.232,242.009 148.618,241.327 146.528,241.308L143.247,241.308Z" style="fill-rule:nonzero;"/>
            </g>
        </g>
        <g transform="matrix(1,0,0,1,0,4)">
            <path d="M86.362,97.716L700.733,97.716" style="fill:none;stroke:black;stroke-width:1px;"/>
        </g>
        <g transform="matrix(0.43865,0,0,0.435478,48.4792,169.301)">
            <path d="M86.362,97.716L700.733,97.716" style="fill:none;stroke:black;stroke-width:2.29px;"/>
        </g>
    </g>
</svg>
